M48
;DRILL file {KiCad 4.0.7-e2-6376~58~ubuntu16.04.1} date Wed Aug 15 22:35:51 2018
;FORMAT={-:-/ absolute / inch / decimal}
FMAT,2
INCH,TZ
T1C0.016
T2C0.024
T3C0.040
T4C0.051
T5C0.087
%
G90
G05
M72
T1
X5.4528Y-3.7008
X5.6693Y-3.685
X5.7796Y-3.8004
X5.7874Y-3.8386
X5.8465Y-3.7402
X5.9055Y-3.7992
X6.1024Y-3.6417
X6.1024Y-3.7008
X6.1417Y-3.7008
X6.2303Y-3.7697
X6.4764Y-3.5039
X6.5748Y-3.8583
T2
X5.4409Y-3.8976
X5.561Y-3.6024
X5.6667Y-3.761
X6.0433Y-3.5039
X6.1475Y-3.8635
X6.2043Y-3.9037
X6.2765Y-3.5621
X6.6339Y-3.6022
T3
X5.7465Y-3.5039
X5.8465Y-3.5039
X5.9465Y-3.5039
T4
X5.2756Y-4.0945
X5.4724Y-4.0945
X5.6693Y-4.0945
X5.8661Y-4.0945
X6.063Y-4.0945
X6.2598Y-4.0945
X6.4567Y-4.0945
X6.6535Y-4.0945
X6.8504Y-4.0945
T5
X5.315Y-3.7795
X6.811Y-3.7795
T0
M30
