G04 #@! TF.FileFunction,Legend,Top*
%FSLAX46Y46*%
G04 Gerber Fmt 4.6, Leading zero omitted, Abs format (unit mm)*
G04 Created by KiCad (PCBNEW 4.0.7-e2-6376~58~ubuntu16.04.1) date Wed Aug 15 22:35:47 2018*
%MOMM*%
%LPD*%
G01*
G04 APERTURE LIST*
%ADD10C,0.100000*%
%ADD11C,0.250000*%
%ADD12C,0.225000*%
%ADD13C,0.200000*%
%ADD14C,0.300000*%
%ADD15C,0.120000*%
%ADD16C,0.150000*%
G04 APERTURE END LIST*
D10*
D11*
X168238095Y-89452381D02*
X168238095Y-88452381D01*
X168666666Y-89166667D02*
X169142857Y-89166667D01*
X168571428Y-89452381D02*
X168904761Y-88452381D01*
X169238095Y-89452381D01*
X169523809Y-89404762D02*
X169666666Y-89452381D01*
X169904762Y-89452381D01*
X170000000Y-89404762D01*
X170047619Y-89357143D01*
X170095238Y-89261905D01*
X170095238Y-89166667D01*
X170047619Y-89071429D01*
X170000000Y-89023810D01*
X169904762Y-88976190D01*
X169714285Y-88928571D01*
X169619047Y-88880952D01*
X169571428Y-88833333D01*
X169523809Y-88738095D01*
X169523809Y-88642857D01*
X169571428Y-88547619D01*
X169619047Y-88500000D01*
X169714285Y-88452381D01*
X169952381Y-88452381D01*
X170095238Y-88500000D01*
X170428571Y-88452381D02*
X171047619Y-88452381D01*
X170714285Y-88833333D01*
X170857143Y-88833333D01*
X170952381Y-88880952D01*
X171000000Y-88928571D01*
X171047619Y-89023810D01*
X171047619Y-89261905D01*
X171000000Y-89357143D01*
X170952381Y-89404762D01*
X170857143Y-89452381D01*
X170571428Y-89452381D01*
X170476190Y-89404762D01*
X170428571Y-89357143D01*
X171428571Y-89166667D02*
X171904762Y-89166667D01*
X171333333Y-89452381D02*
X171666666Y-88452381D01*
X172000000Y-89452381D01*
X173000000Y-88785714D02*
X173238095Y-89452381D01*
X173476191Y-88785714D01*
X174380953Y-89452381D02*
X173809524Y-89452381D01*
X174095238Y-89452381D02*
X174095238Y-88452381D01*
X174000000Y-88595238D01*
X173904762Y-88690476D01*
X173809524Y-88738095D01*
X174809524Y-89357143D02*
X174857143Y-89404762D01*
X174809524Y-89452381D01*
X174761905Y-89404762D01*
X174809524Y-89357143D01*
X174809524Y-89452381D01*
X175476190Y-88452381D02*
X175571429Y-88452381D01*
X175666667Y-88500000D01*
X175714286Y-88547619D01*
X175761905Y-88642857D01*
X175809524Y-88833333D01*
X175809524Y-89071429D01*
X175761905Y-89261905D01*
X175714286Y-89357143D01*
X175666667Y-89404762D01*
X175571429Y-89452381D01*
X175476190Y-89452381D01*
X175380952Y-89404762D01*
X175333333Y-89357143D01*
X175285714Y-89261905D01*
X175238095Y-89071429D01*
X175238095Y-88833333D01*
X175285714Y-88642857D01*
X175333333Y-88547619D01*
X175380952Y-88500000D01*
X175476190Y-88452381D01*
D12*
X154671429Y-89364286D02*
X154800000Y-89407143D01*
X155014286Y-89407143D01*
X155100000Y-89364286D01*
X155142857Y-89321429D01*
X155185714Y-89235714D01*
X155185714Y-89150000D01*
X155142857Y-89064286D01*
X155100000Y-89021429D01*
X155014286Y-88978571D01*
X154842857Y-88935714D01*
X154757143Y-88892857D01*
X154714286Y-88850000D01*
X154671429Y-88764286D01*
X154671429Y-88678571D01*
X154714286Y-88592857D01*
X154757143Y-88550000D01*
X154842857Y-88507143D01*
X155057143Y-88507143D01*
X155185714Y-88550000D01*
X155571429Y-89407143D02*
X155571429Y-88507143D01*
X156000000Y-89407143D02*
X156000000Y-88507143D01*
X156214285Y-88507143D01*
X156342857Y-88550000D01*
X156428571Y-88635714D01*
X156471428Y-88721429D01*
X156514285Y-88892857D01*
X156514285Y-89021429D01*
X156471428Y-89192857D01*
X156428571Y-89278571D01*
X156342857Y-89364286D01*
X156214285Y-89407143D01*
X156000000Y-89407143D01*
X156900000Y-88935714D02*
X157200000Y-88935714D01*
X157328571Y-89407143D02*
X156900000Y-89407143D01*
X156900000Y-88507143D01*
X157328571Y-88507143D01*
X156714286Y-93407143D02*
X156714286Y-92507143D01*
X156714286Y-92935714D02*
X157228571Y-92935714D01*
X157228571Y-93407143D02*
X157228571Y-92507143D01*
X157828571Y-92507143D02*
X158000000Y-92507143D01*
X158085714Y-92550000D01*
X158171428Y-92635714D01*
X158214286Y-92807143D01*
X158214286Y-93107143D01*
X158171428Y-93278571D01*
X158085714Y-93364286D01*
X158000000Y-93407143D01*
X157828571Y-93407143D01*
X157742857Y-93364286D01*
X157657143Y-93278571D01*
X157614286Y-93107143D01*
X157614286Y-92807143D01*
X157657143Y-92635714D01*
X157742857Y-92550000D01*
X157828571Y-92507143D01*
X158471428Y-92507143D02*
X158985714Y-92507143D01*
X158728571Y-93407143D02*
X158728571Y-92507143D01*
X153257143Y-93321429D02*
X153214286Y-93364286D01*
X153085715Y-93407143D01*
X153000001Y-93407143D01*
X152871429Y-93364286D01*
X152785715Y-93278571D01*
X152742858Y-93192857D01*
X152700001Y-93021429D01*
X152700001Y-92892857D01*
X152742858Y-92721429D01*
X152785715Y-92635714D01*
X152871429Y-92550000D01*
X153000001Y-92507143D01*
X153085715Y-92507143D01*
X153214286Y-92550000D01*
X153257143Y-92592857D01*
X153814286Y-92507143D02*
X153985715Y-92507143D01*
X154071429Y-92550000D01*
X154157143Y-92635714D01*
X154200001Y-92807143D01*
X154200001Y-93107143D01*
X154157143Y-93278571D01*
X154071429Y-93364286D01*
X153985715Y-93407143D01*
X153814286Y-93407143D01*
X153728572Y-93364286D01*
X153642858Y-93278571D01*
X153600001Y-93107143D01*
X153600001Y-92807143D01*
X153642858Y-92635714D01*
X153728572Y-92550000D01*
X153814286Y-92507143D01*
X155014286Y-93407143D02*
X154585715Y-93407143D01*
X154585715Y-92507143D01*
X155314286Y-93407143D02*
X155314286Y-92507143D01*
X155528571Y-92507143D01*
X155657143Y-92550000D01*
X155742857Y-92635714D01*
X155785714Y-92721429D01*
X155828571Y-92892857D01*
X155828571Y-93021429D01*
X155785714Y-93192857D01*
X155742857Y-93278571D01*
X155657143Y-93364286D01*
X155528571Y-93407143D01*
X155314286Y-93407143D01*
D13*
X173828571Y-107757143D02*
X173400000Y-107757143D01*
X173357143Y-108185714D01*
X173400000Y-108142857D01*
X173485714Y-108100000D01*
X173700000Y-108100000D01*
X173785714Y-108142857D01*
X173828571Y-108185714D01*
X173871428Y-108271429D01*
X173871428Y-108485714D01*
X173828571Y-108571429D01*
X173785714Y-108614286D01*
X173700000Y-108657143D01*
X173485714Y-108657143D01*
X173400000Y-108614286D01*
X173357143Y-108571429D01*
X174128571Y-107757143D02*
X174428571Y-108657143D01*
X174728571Y-107757143D01*
X158828571Y-107757143D02*
X158400000Y-107757143D01*
X158357143Y-108185714D01*
X158400000Y-108142857D01*
X158485714Y-108100000D01*
X158700000Y-108100000D01*
X158785714Y-108142857D01*
X158828571Y-108185714D01*
X158871428Y-108271429D01*
X158871428Y-108485714D01*
X158828571Y-108571429D01*
X158785714Y-108614286D01*
X158700000Y-108657143D01*
X158485714Y-108657143D01*
X158400000Y-108614286D01*
X158357143Y-108571429D01*
X159128571Y-107757143D02*
X159428571Y-108657143D01*
X159728571Y-107757143D01*
X167821429Y-108614286D02*
X167950000Y-108657143D01*
X168164286Y-108657143D01*
X168250000Y-108614286D01*
X168292857Y-108571429D01*
X168335714Y-108485714D01*
X168335714Y-108400000D01*
X168292857Y-108314286D01*
X168250000Y-108271429D01*
X168164286Y-108228571D01*
X167992857Y-108185714D01*
X167907143Y-108142857D01*
X167864286Y-108100000D01*
X167821429Y-108014286D01*
X167821429Y-107928571D01*
X167864286Y-107842857D01*
X167907143Y-107800000D01*
X167992857Y-107757143D01*
X168207143Y-107757143D01*
X168335714Y-107800000D01*
X169192857Y-107800000D02*
X169107143Y-107757143D01*
X168978572Y-107757143D01*
X168850000Y-107800000D01*
X168764286Y-107885714D01*
X168721429Y-107971429D01*
X168678572Y-108142857D01*
X168678572Y-108271429D01*
X168721429Y-108442857D01*
X168764286Y-108528571D01*
X168850000Y-108614286D01*
X168978572Y-108657143D01*
X169064286Y-108657143D01*
X169192857Y-108614286D01*
X169235714Y-108571429D01*
X169235714Y-108271429D01*
X169064286Y-108271429D01*
X169621429Y-108657143D02*
X169621429Y-107757143D01*
X170135714Y-108657143D01*
X170135714Y-107757143D01*
X152821429Y-108614286D02*
X152950000Y-108657143D01*
X153164286Y-108657143D01*
X153250000Y-108614286D01*
X153292857Y-108571429D01*
X153335714Y-108485714D01*
X153335714Y-108400000D01*
X153292857Y-108314286D01*
X153250000Y-108271429D01*
X153164286Y-108228571D01*
X152992857Y-108185714D01*
X152907143Y-108142857D01*
X152864286Y-108100000D01*
X152821429Y-108014286D01*
X152821429Y-107928571D01*
X152864286Y-107842857D01*
X152907143Y-107800000D01*
X152992857Y-107757143D01*
X153207143Y-107757143D01*
X153335714Y-107800000D01*
X154192857Y-107800000D02*
X154107143Y-107757143D01*
X153978572Y-107757143D01*
X153850000Y-107800000D01*
X153764286Y-107885714D01*
X153721429Y-107971429D01*
X153678572Y-108142857D01*
X153678572Y-108271429D01*
X153721429Y-108442857D01*
X153764286Y-108528571D01*
X153850000Y-108614286D01*
X153978572Y-108657143D01*
X154064286Y-108657143D01*
X154192857Y-108614286D01*
X154235714Y-108571429D01*
X154235714Y-108271429D01*
X154064286Y-108271429D01*
X154621429Y-108657143D02*
X154621429Y-107757143D01*
X155135714Y-108657143D01*
X155135714Y-107757143D01*
X163314286Y-107800000D02*
X163228572Y-107757143D01*
X163100001Y-107757143D01*
X162971429Y-107800000D01*
X162885715Y-107885714D01*
X162842858Y-107971429D01*
X162800001Y-108142857D01*
X162800001Y-108271429D01*
X162842858Y-108442857D01*
X162885715Y-108528571D01*
X162971429Y-108614286D01*
X163100001Y-108657143D01*
X163185715Y-108657143D01*
X163314286Y-108614286D01*
X163357143Y-108571429D01*
X163357143Y-108271429D01*
X163185715Y-108271429D01*
X163742858Y-108657143D02*
X163742858Y-107757143D01*
X164257143Y-108657143D01*
X164257143Y-107757143D01*
X164685715Y-108657143D02*
X164685715Y-107757143D01*
X164900000Y-107757143D01*
X165028572Y-107800000D01*
X165114286Y-107885714D01*
X165157143Y-107971429D01*
X165200000Y-108142857D01*
X165200000Y-108271429D01*
X165157143Y-108442857D01*
X165114286Y-108528571D01*
X165028572Y-108614286D01*
X164900000Y-108657143D01*
X164685715Y-108657143D01*
X148314286Y-107800000D02*
X148228572Y-107757143D01*
X148100001Y-107757143D01*
X147971429Y-107800000D01*
X147885715Y-107885714D01*
X147842858Y-107971429D01*
X147800001Y-108142857D01*
X147800001Y-108271429D01*
X147842858Y-108442857D01*
X147885715Y-108528571D01*
X147971429Y-108614286D01*
X148100001Y-108657143D01*
X148185715Y-108657143D01*
X148314286Y-108614286D01*
X148357143Y-108571429D01*
X148357143Y-108271429D01*
X148185715Y-108271429D01*
X148742858Y-108657143D02*
X148742858Y-107757143D01*
X149257143Y-108657143D01*
X149257143Y-107757143D01*
X149685715Y-108657143D02*
X149685715Y-107757143D01*
X149900000Y-107757143D01*
X150028572Y-107800000D01*
X150114286Y-107885714D01*
X150157143Y-107971429D01*
X150200000Y-108142857D01*
X150200000Y-108271429D01*
X150157143Y-108442857D01*
X150114286Y-108528571D01*
X150028572Y-108614286D01*
X149900000Y-108657143D01*
X149685715Y-108657143D01*
X143828571Y-107757143D02*
X143400000Y-107757143D01*
X143357143Y-108185714D01*
X143400000Y-108142857D01*
X143485714Y-108100000D01*
X143700000Y-108100000D01*
X143785714Y-108142857D01*
X143828571Y-108185714D01*
X143871428Y-108271429D01*
X143871428Y-108485714D01*
X143828571Y-108571429D01*
X143785714Y-108614286D01*
X143700000Y-108657143D01*
X143485714Y-108657143D01*
X143400000Y-108614286D01*
X143357143Y-108571429D01*
X144128571Y-107757143D02*
X144428571Y-108657143D01*
X144728571Y-107757143D01*
X137821429Y-108614286D02*
X137950000Y-108657143D01*
X138164286Y-108657143D01*
X138250000Y-108614286D01*
X138292857Y-108571429D01*
X138335714Y-108485714D01*
X138335714Y-108400000D01*
X138292857Y-108314286D01*
X138250000Y-108271429D01*
X138164286Y-108228571D01*
X137992857Y-108185714D01*
X137907143Y-108142857D01*
X137864286Y-108100000D01*
X137821429Y-108014286D01*
X137821429Y-107928571D01*
X137864286Y-107842857D01*
X137907143Y-107800000D01*
X137992857Y-107757143D01*
X138207143Y-107757143D01*
X138335714Y-107800000D01*
X139192857Y-107800000D02*
X139107143Y-107757143D01*
X138978572Y-107757143D01*
X138850000Y-107800000D01*
X138764286Y-107885714D01*
X138721429Y-107971429D01*
X138678572Y-108142857D01*
X138678572Y-108271429D01*
X138721429Y-108442857D01*
X138764286Y-108528571D01*
X138850000Y-108614286D01*
X138978572Y-108657143D01*
X139064286Y-108657143D01*
X139192857Y-108614286D01*
X139235714Y-108571429D01*
X139235714Y-108271429D01*
X139064286Y-108271429D01*
X139621429Y-108657143D02*
X139621429Y-107757143D01*
X140135714Y-108657143D01*
X140135714Y-107757143D01*
X133314286Y-107800000D02*
X133228572Y-107757143D01*
X133100001Y-107757143D01*
X132971429Y-107800000D01*
X132885715Y-107885714D01*
X132842858Y-107971429D01*
X132800001Y-108142857D01*
X132800001Y-108271429D01*
X132842858Y-108442857D01*
X132885715Y-108528571D01*
X132971429Y-108614286D01*
X133100001Y-108657143D01*
X133185715Y-108657143D01*
X133314286Y-108614286D01*
X133357143Y-108571429D01*
X133357143Y-108271429D01*
X133185715Y-108271429D01*
X133742858Y-108657143D02*
X133742858Y-107757143D01*
X134257143Y-108657143D01*
X134257143Y-107757143D01*
X134685715Y-108657143D02*
X134685715Y-107757143D01*
X134900000Y-107757143D01*
X135028572Y-107800000D01*
X135114286Y-107885714D01*
X135157143Y-107971429D01*
X135200000Y-108142857D01*
X135200000Y-108271429D01*
X135157143Y-108442857D01*
X135114286Y-108528571D01*
X135028572Y-108614286D01*
X134900000Y-108657143D01*
X134685715Y-108657143D01*
D14*
X162857143Y-111403571D02*
X162357143Y-110689286D01*
X162000000Y-111403571D02*
X162000000Y-109903571D01*
X162571428Y-109903571D01*
X162714286Y-109975000D01*
X162785714Y-110046429D01*
X162857143Y-110189286D01*
X162857143Y-110403571D01*
X162785714Y-110546429D01*
X162714286Y-110617857D01*
X162571428Y-110689286D01*
X162000000Y-110689286D01*
X163500000Y-110617857D02*
X164000000Y-110617857D01*
X164214286Y-111403571D02*
X163500000Y-111403571D01*
X163500000Y-109903571D01*
X164214286Y-109903571D01*
X165357143Y-110617857D02*
X164857143Y-110617857D01*
X164857143Y-111403571D02*
X164857143Y-109903571D01*
X165571429Y-109903571D01*
X167000000Y-111403571D02*
X166500000Y-110689286D01*
X166142857Y-111403571D02*
X166142857Y-109903571D01*
X166714285Y-109903571D01*
X166857143Y-109975000D01*
X166928571Y-110046429D01*
X167000000Y-110189286D01*
X167000000Y-110403571D01*
X166928571Y-110546429D01*
X166857143Y-110617857D01*
X166714285Y-110689286D01*
X166142857Y-110689286D01*
X167642857Y-111403571D02*
X167642857Y-109903571D01*
X169142857Y-109975000D02*
X169000000Y-109903571D01*
X168785714Y-109903571D01*
X168571429Y-109975000D01*
X168428571Y-110117857D01*
X168357143Y-110260714D01*
X168285714Y-110546429D01*
X168285714Y-110760714D01*
X168357143Y-111046429D01*
X168428571Y-111189286D01*
X168571429Y-111332143D01*
X168785714Y-111403571D01*
X168928571Y-111403571D01*
X169142857Y-111332143D01*
X169214286Y-111260714D01*
X169214286Y-110760714D01*
X168928571Y-110760714D01*
X169857143Y-110617857D02*
X170357143Y-110617857D01*
X170571429Y-111403571D02*
X169857143Y-111403571D01*
X169857143Y-109903571D01*
X170571429Y-109903571D01*
X172071429Y-111403571D02*
X171571429Y-110689286D01*
X171214286Y-111403571D02*
X171214286Y-109903571D01*
X171785714Y-109903571D01*
X171928572Y-109975000D01*
X172000000Y-110046429D01*
X172071429Y-110189286D01*
X172071429Y-110403571D01*
X172000000Y-110546429D01*
X171928572Y-110617857D01*
X171785714Y-110689286D01*
X171214286Y-110689286D01*
X172642857Y-110975000D02*
X173357143Y-110975000D01*
X172500000Y-111403571D02*
X173000000Y-109903571D01*
X173500000Y-111403571D01*
X174000000Y-111403571D02*
X174000000Y-109903571D01*
X174857143Y-111403571D01*
X174857143Y-109903571D01*
X175357143Y-109903571D02*
X176214286Y-109903571D01*
X175785715Y-111403571D02*
X175785715Y-109903571D01*
X163535715Y-113953571D02*
X163535715Y-112453571D01*
X164107143Y-112453571D01*
X164250001Y-112525000D01*
X164321429Y-112596429D01*
X164392858Y-112739286D01*
X164392858Y-112953571D01*
X164321429Y-113096429D01*
X164250001Y-113167857D01*
X164107143Y-113239286D01*
X163535715Y-113239286D01*
X165892858Y-113953571D02*
X165392858Y-113239286D01*
X165035715Y-113953571D02*
X165035715Y-112453571D01*
X165607143Y-112453571D01*
X165750001Y-112525000D01*
X165821429Y-112596429D01*
X165892858Y-112739286D01*
X165892858Y-112953571D01*
X165821429Y-113096429D01*
X165750001Y-113167857D01*
X165607143Y-113239286D01*
X165035715Y-113239286D01*
X166535715Y-113167857D02*
X167035715Y-113167857D01*
X167250001Y-113953571D02*
X166535715Y-113953571D01*
X166535715Y-112453571D01*
X167250001Y-112453571D01*
X167821429Y-113882143D02*
X168035715Y-113953571D01*
X168392858Y-113953571D01*
X168535715Y-113882143D01*
X168607144Y-113810714D01*
X168678572Y-113667857D01*
X168678572Y-113525000D01*
X168607144Y-113382143D01*
X168535715Y-113310714D01*
X168392858Y-113239286D01*
X168107144Y-113167857D01*
X167964286Y-113096429D01*
X167892858Y-113025000D01*
X167821429Y-112882143D01*
X167821429Y-112739286D01*
X167892858Y-112596429D01*
X167964286Y-112525000D01*
X168107144Y-112453571D01*
X168464286Y-112453571D01*
X168678572Y-112525000D01*
X169250000Y-113882143D02*
X169464286Y-113953571D01*
X169821429Y-113953571D01*
X169964286Y-113882143D01*
X170035715Y-113810714D01*
X170107143Y-113667857D01*
X170107143Y-113525000D01*
X170035715Y-113382143D01*
X169964286Y-113310714D01*
X169821429Y-113239286D01*
X169535715Y-113167857D01*
X169392857Y-113096429D01*
X169321429Y-113025000D01*
X169250000Y-112882143D01*
X169250000Y-112739286D01*
X169321429Y-112596429D01*
X169392857Y-112525000D01*
X169535715Y-112453571D01*
X169892857Y-112453571D01*
X170107143Y-112525000D01*
X170750000Y-112453571D02*
X170750000Y-113667857D01*
X170821428Y-113810714D01*
X170892857Y-113882143D01*
X171035714Y-113953571D01*
X171321428Y-113953571D01*
X171464286Y-113882143D01*
X171535714Y-113810714D01*
X171607143Y-113667857D01*
X171607143Y-112453571D01*
X173178572Y-113953571D02*
X172678572Y-113239286D01*
X172321429Y-113953571D02*
X172321429Y-112453571D01*
X172892857Y-112453571D01*
X173035715Y-112525000D01*
X173107143Y-112596429D01*
X173178572Y-112739286D01*
X173178572Y-112953571D01*
X173107143Y-113096429D01*
X173035715Y-113167857D01*
X172892857Y-113239286D01*
X172321429Y-113239286D01*
X173821429Y-113167857D02*
X174321429Y-113167857D01*
X174535715Y-113953571D02*
X173821429Y-113953571D01*
X173821429Y-112453571D01*
X174535715Y-112453571D01*
X150714286Y-109903571D02*
X151071429Y-111403571D01*
X151357143Y-110332143D01*
X151642857Y-111403571D01*
X152000000Y-109903571D01*
X152500000Y-110975000D02*
X153214286Y-110975000D01*
X152357143Y-111403571D02*
X152857143Y-109903571D01*
X153357143Y-111403571D01*
X153642857Y-109903571D02*
X154500000Y-109903571D01*
X154071429Y-111403571D02*
X154071429Y-109903571D01*
X155000000Y-110617857D02*
X155500000Y-110617857D01*
X155714286Y-111403571D02*
X155000000Y-111403571D01*
X155000000Y-109903571D01*
X155714286Y-109903571D01*
X157214286Y-111403571D02*
X156714286Y-110689286D01*
X156357143Y-111403571D02*
X156357143Y-109903571D01*
X156928571Y-109903571D01*
X157071429Y-109975000D01*
X157142857Y-110046429D01*
X157214286Y-110189286D01*
X157214286Y-110403571D01*
X157142857Y-110546429D01*
X157071429Y-110617857D01*
X156928571Y-110689286D01*
X156357143Y-110689286D01*
X148535715Y-113953571D02*
X148535715Y-112453571D01*
X149107143Y-112453571D01*
X149250001Y-112525000D01*
X149321429Y-112596429D01*
X149392858Y-112739286D01*
X149392858Y-112953571D01*
X149321429Y-113096429D01*
X149250001Y-113167857D01*
X149107143Y-113239286D01*
X148535715Y-113239286D01*
X150892858Y-113953571D02*
X150392858Y-113239286D01*
X150035715Y-113953571D02*
X150035715Y-112453571D01*
X150607143Y-112453571D01*
X150750001Y-112525000D01*
X150821429Y-112596429D01*
X150892858Y-112739286D01*
X150892858Y-112953571D01*
X150821429Y-113096429D01*
X150750001Y-113167857D01*
X150607143Y-113239286D01*
X150035715Y-113239286D01*
X151535715Y-113167857D02*
X152035715Y-113167857D01*
X152250001Y-113953571D02*
X151535715Y-113953571D01*
X151535715Y-112453571D01*
X152250001Y-112453571D01*
X152821429Y-113882143D02*
X153035715Y-113953571D01*
X153392858Y-113953571D01*
X153535715Y-113882143D01*
X153607144Y-113810714D01*
X153678572Y-113667857D01*
X153678572Y-113525000D01*
X153607144Y-113382143D01*
X153535715Y-113310714D01*
X153392858Y-113239286D01*
X153107144Y-113167857D01*
X152964286Y-113096429D01*
X152892858Y-113025000D01*
X152821429Y-112882143D01*
X152821429Y-112739286D01*
X152892858Y-112596429D01*
X152964286Y-112525000D01*
X153107144Y-112453571D01*
X153464286Y-112453571D01*
X153678572Y-112525000D01*
X154250000Y-113882143D02*
X154464286Y-113953571D01*
X154821429Y-113953571D01*
X154964286Y-113882143D01*
X155035715Y-113810714D01*
X155107143Y-113667857D01*
X155107143Y-113525000D01*
X155035715Y-113382143D01*
X154964286Y-113310714D01*
X154821429Y-113239286D01*
X154535715Y-113167857D01*
X154392857Y-113096429D01*
X154321429Y-113025000D01*
X154250000Y-112882143D01*
X154250000Y-112739286D01*
X154321429Y-112596429D01*
X154392857Y-112525000D01*
X154535715Y-112453571D01*
X154892857Y-112453571D01*
X155107143Y-112525000D01*
X155750000Y-112453571D02*
X155750000Y-113667857D01*
X155821428Y-113810714D01*
X155892857Y-113882143D01*
X156035714Y-113953571D01*
X156321428Y-113953571D01*
X156464286Y-113882143D01*
X156535714Y-113810714D01*
X156607143Y-113667857D01*
X156607143Y-112453571D01*
X158178572Y-113953571D02*
X157678572Y-113239286D01*
X157321429Y-113953571D02*
X157321429Y-112453571D01*
X157892857Y-112453571D01*
X158035715Y-112525000D01*
X158107143Y-112596429D01*
X158178572Y-112739286D01*
X158178572Y-112953571D01*
X158107143Y-113096429D01*
X158035715Y-113167857D01*
X157892857Y-113239286D01*
X157321429Y-113239286D01*
X158821429Y-113167857D02*
X159321429Y-113167857D01*
X159535715Y-113953571D02*
X158821429Y-113953571D01*
X158821429Y-112453571D01*
X159535715Y-112453571D01*
X135714286Y-109903571D02*
X136071429Y-111403571D01*
X136357143Y-110332143D01*
X136642857Y-111403571D01*
X137000000Y-109903571D01*
X137500000Y-110975000D02*
X138214286Y-110975000D01*
X137357143Y-111403571D02*
X137857143Y-109903571D01*
X138357143Y-111403571D01*
X138642857Y-109903571D02*
X139500000Y-109903571D01*
X139071429Y-111403571D02*
X139071429Y-109903571D01*
X140000000Y-110617857D02*
X140500000Y-110617857D01*
X140714286Y-111403571D02*
X140000000Y-111403571D01*
X140000000Y-109903571D01*
X140714286Y-109903571D01*
X142214286Y-111403571D02*
X141714286Y-110689286D01*
X141357143Y-111403571D02*
X141357143Y-109903571D01*
X141928571Y-109903571D01*
X142071429Y-109975000D01*
X142142857Y-110046429D01*
X142214286Y-110189286D01*
X142214286Y-110403571D01*
X142142857Y-110546429D01*
X142071429Y-110617857D01*
X141928571Y-110689286D01*
X141357143Y-110689286D01*
X136964286Y-113167857D02*
X136464286Y-113167857D01*
X136464286Y-113953571D02*
X136464286Y-112453571D01*
X137178572Y-112453571D01*
X138464286Y-113953571D02*
X137750000Y-113953571D01*
X137750000Y-112453571D01*
X139250000Y-112453571D02*
X139535714Y-112453571D01*
X139678572Y-112525000D01*
X139821429Y-112667857D01*
X139892857Y-112953571D01*
X139892857Y-113453571D01*
X139821429Y-113739286D01*
X139678572Y-113882143D01*
X139535714Y-113953571D01*
X139250000Y-113953571D01*
X139107143Y-113882143D01*
X138964286Y-113739286D01*
X138892857Y-113453571D01*
X138892857Y-112953571D01*
X138964286Y-112667857D01*
X139107143Y-112525000D01*
X139250000Y-112453571D01*
X140392858Y-112453571D02*
X140750001Y-113953571D01*
X141035715Y-112882143D01*
X141321429Y-113953571D01*
X141678572Y-112453571D01*
D15*
X139150000Y-93000000D02*
X139150000Y-94000000D01*
X140850000Y-94000000D02*
X140850000Y-93000000D01*
X141650000Y-93000000D02*
X141650000Y-94000000D01*
X143350000Y-94000000D02*
X143350000Y-93000000D01*
X155350000Y-97000000D02*
X155350000Y-96000000D01*
X153650000Y-96000000D02*
X153650000Y-97000000D01*
D16*
X131500000Y-106200000D02*
X146500000Y-106200000D01*
X131500000Y-101800000D02*
X146500000Y-101800000D01*
X131500000Y-107200000D02*
X131500000Y-99800000D01*
X146500000Y-107200000D02*
X131500000Y-107200000D01*
X146500000Y-99800000D02*
X146500000Y-107200000D01*
X131500000Y-99800000D02*
X146500000Y-99800000D01*
X146500000Y-106200000D02*
X161500000Y-106200000D01*
X146500000Y-101800000D02*
X161500000Y-101800000D01*
X146500000Y-107200000D02*
X146500000Y-99800000D01*
X161500000Y-107200000D02*
X146500000Y-107200000D01*
X161500000Y-99800000D02*
X161500000Y-107200000D01*
X146500000Y-99800000D02*
X161500000Y-99800000D01*
X161500000Y-106200000D02*
X176500000Y-106200000D01*
X161500000Y-101800000D02*
X176500000Y-101800000D01*
X161500000Y-107200000D02*
X161500000Y-99800000D01*
X176500000Y-107200000D02*
X161500000Y-107200000D01*
X176500000Y-99800000D02*
X176500000Y-107200000D01*
X161500000Y-99800000D02*
X176500000Y-99800000D01*
D15*
X143380000Y-88900000D02*
X143380000Y-90100000D01*
X141620000Y-90100000D02*
X141620000Y-88900000D01*
X140880000Y-88900000D02*
X140880000Y-90100000D01*
X139120000Y-90100000D02*
X139120000Y-88900000D01*
X143380000Y-96900000D02*
X143380000Y-98100000D01*
X141620000Y-98100000D02*
X141620000Y-96900000D01*
X140880000Y-96900000D02*
X140880000Y-98100000D01*
X139120000Y-98100000D02*
X139120000Y-96900000D01*
D16*
X146275000Y-98450000D02*
X150725000Y-98450000D01*
X144750000Y-91550000D02*
X150725000Y-91550000D01*
X160250000Y-91000000D02*
X169750000Y-91000000D01*
X160250000Y-96000000D02*
X169750000Y-96000000D01*
X160250000Y-91000000D02*
X160250000Y-96000000D01*
X169750000Y-91000000D02*
X169750000Y-96000000D01*
X160250000Y-92000000D02*
X160750000Y-92000000D01*
X160750000Y-92000000D02*
X160750000Y-95000000D01*
X160250000Y-95000000D02*
X160750000Y-95000000D01*
X147230000Y-87730000D02*
X147230000Y-90270000D01*
X144690000Y-87730000D02*
X152310000Y-87730000D01*
X152310000Y-87730000D02*
X152310000Y-90270000D01*
X152310000Y-90270000D02*
X144690000Y-90270000D01*
X144690000Y-90270000D02*
X144690000Y-87730000D01*
D15*
X154090000Y-91890000D02*
X157910000Y-91890000D01*
X157910000Y-91890000D02*
X157910000Y-90110000D01*
X157910000Y-90110000D02*
X154090000Y-90110000D01*
X154090000Y-91890000D02*
X154090000Y-90110000D01*
D16*
X136357143Y-90666666D02*
X136404762Y-90714285D01*
X136452381Y-90857142D01*
X136452381Y-90952380D01*
X136404762Y-91095238D01*
X136309524Y-91190476D01*
X136214286Y-91238095D01*
X136023810Y-91285714D01*
X135880952Y-91285714D01*
X135690476Y-91238095D01*
X135595238Y-91190476D01*
X135500000Y-91095238D01*
X135452381Y-90952380D01*
X135452381Y-90857142D01*
X135500000Y-90714285D01*
X135547619Y-90666666D01*
X136452381Y-89714285D02*
X136452381Y-90285714D01*
X136452381Y-90000000D02*
X135452381Y-90000000D01*
X135595238Y-90095238D01*
X135690476Y-90190476D01*
X135738095Y-90285714D01*
X137857143Y-90666666D02*
X137904762Y-90714285D01*
X137952381Y-90857142D01*
X137952381Y-90952380D01*
X137904762Y-91095238D01*
X137809524Y-91190476D01*
X137714286Y-91238095D01*
X137523810Y-91285714D01*
X137380952Y-91285714D01*
X137190476Y-91238095D01*
X137095238Y-91190476D01*
X137000000Y-91095238D01*
X136952381Y-90952380D01*
X136952381Y-90857142D01*
X137000000Y-90714285D01*
X137047619Y-90666666D01*
X137047619Y-90285714D02*
X137000000Y-90238095D01*
X136952381Y-90142857D01*
X136952381Y-89904761D01*
X137000000Y-89809523D01*
X137047619Y-89761904D01*
X137142857Y-89714285D01*
X137238095Y-89714285D01*
X137380952Y-89761904D01*
X137952381Y-90333333D01*
X137952381Y-89714285D01*
X156857143Y-96666666D02*
X156904762Y-96714285D01*
X156952381Y-96857142D01*
X156952381Y-96952380D01*
X156904762Y-97095238D01*
X156809524Y-97190476D01*
X156714286Y-97238095D01*
X156523810Y-97285714D01*
X156380952Y-97285714D01*
X156190476Y-97238095D01*
X156095238Y-97190476D01*
X156000000Y-97095238D01*
X155952381Y-96952380D01*
X155952381Y-96857142D01*
X156000000Y-96714285D01*
X156047619Y-96666666D01*
X155952381Y-96333333D02*
X155952381Y-95714285D01*
X156333333Y-96047619D01*
X156333333Y-95904761D01*
X156380952Y-95809523D01*
X156428571Y-95761904D01*
X156523810Y-95714285D01*
X156761905Y-95714285D01*
X156857143Y-95761904D01*
X156904762Y-95809523D01*
X156952381Y-95904761D01*
X156952381Y-96190476D01*
X156904762Y-96285714D01*
X156857143Y-96333333D01*
X137952381Y-88666666D02*
X137476190Y-89000000D01*
X137952381Y-89238095D02*
X136952381Y-89238095D01*
X136952381Y-88857142D01*
X137000000Y-88761904D01*
X137047619Y-88714285D01*
X137142857Y-88666666D01*
X137285714Y-88666666D01*
X137380952Y-88714285D01*
X137428571Y-88761904D01*
X137476190Y-88857142D01*
X137476190Y-89238095D01*
X137952381Y-87714285D02*
X137952381Y-88285714D01*
X137952381Y-88000000D02*
X136952381Y-88000000D01*
X137095238Y-88095238D01*
X137190476Y-88190476D01*
X137238095Y-88285714D01*
X136452381Y-88666666D02*
X135976190Y-89000000D01*
X136452381Y-89238095D02*
X135452381Y-89238095D01*
X135452381Y-88857142D01*
X135500000Y-88761904D01*
X135547619Y-88714285D01*
X135642857Y-88666666D01*
X135785714Y-88666666D01*
X135880952Y-88714285D01*
X135928571Y-88761904D01*
X135976190Y-88857142D01*
X135976190Y-89238095D01*
X135547619Y-88285714D02*
X135500000Y-88238095D01*
X135452381Y-88142857D01*
X135452381Y-87904761D01*
X135500000Y-87809523D01*
X135547619Y-87761904D01*
X135642857Y-87714285D01*
X135738095Y-87714285D01*
X135880952Y-87761904D01*
X136452381Y-88333333D01*
X136452381Y-87714285D01*
X137952381Y-92666666D02*
X137476190Y-93000000D01*
X137952381Y-93238095D02*
X136952381Y-93238095D01*
X136952381Y-92857142D01*
X137000000Y-92761904D01*
X137047619Y-92714285D01*
X137142857Y-92666666D01*
X137285714Y-92666666D01*
X137380952Y-92714285D01*
X137428571Y-92761904D01*
X137476190Y-92857142D01*
X137476190Y-93238095D01*
X136952381Y-92333333D02*
X136952381Y-91714285D01*
X137333333Y-92047619D01*
X137333333Y-91904761D01*
X137380952Y-91809523D01*
X137428571Y-91761904D01*
X137523810Y-91714285D01*
X137761905Y-91714285D01*
X137857143Y-91761904D01*
X137904762Y-91809523D01*
X137952381Y-91904761D01*
X137952381Y-92190476D01*
X137904762Y-92285714D01*
X137857143Y-92333333D01*
X136452381Y-92666666D02*
X135976190Y-93000000D01*
X136452381Y-93238095D02*
X135452381Y-93238095D01*
X135452381Y-92857142D01*
X135500000Y-92761904D01*
X135547619Y-92714285D01*
X135642857Y-92666666D01*
X135785714Y-92666666D01*
X135880952Y-92714285D01*
X135928571Y-92761904D01*
X135976190Y-92857142D01*
X135976190Y-93238095D01*
X135785714Y-91809523D02*
X136452381Y-91809523D01*
X135404762Y-92047619D02*
X136119048Y-92285714D01*
X136119048Y-91666666D01*
X147738095Y-94452381D02*
X147738095Y-95261905D01*
X147785714Y-95357143D01*
X147833333Y-95404762D01*
X147928571Y-95452381D01*
X148119048Y-95452381D01*
X148214286Y-95404762D01*
X148261905Y-95357143D01*
X148309524Y-95261905D01*
X148309524Y-94452381D01*
X149309524Y-95452381D02*
X148738095Y-95452381D01*
X149023809Y-95452381D02*
X149023809Y-94452381D01*
X148928571Y-94595238D01*
X148833333Y-94690476D01*
X148738095Y-94738095D01*
M02*
