G04 #@! TF.FileFunction,Copper,L2,Bot,Signal*
%FSLAX46Y46*%
G04 Gerber Fmt 4.6, Leading zero omitted, Abs format (unit mm)*
G04 Created by KiCad (PCBNEW 4.0.7-e2-6376~58~ubuntu16.04.1) date Wed Aug 15 22:35:47 2018*
%MOMM*%
%LPD*%
G01*
G04 APERTURE LIST*
%ADD10C,0.100000*%
%ADD11O,2.500000X3.000000*%
%ADD12C,1.524000*%
%ADD13C,4.000000*%
%ADD14C,0.600000*%
%ADD15C,0.900000*%
%ADD16C,0.400000*%
%ADD17C,0.600000*%
%ADD18C,0.254000*%
G04 APERTURE END LIST*
D10*
D11*
X134000000Y-104000000D03*
X139000000Y-104000000D03*
X144000000Y-104000000D03*
X149000000Y-104000000D03*
X154000000Y-104000000D03*
X159000000Y-104000000D03*
X164000000Y-104000000D03*
X169000000Y-104000000D03*
X174000000Y-104000000D03*
D12*
X145960000Y-89000000D03*
X148500000Y-89000000D03*
X151040000Y-89000000D03*
D13*
X173000000Y-96000000D03*
X135000000Y-96000000D03*
D14*
X138500000Y-94000000D03*
X144000000Y-93600000D03*
D15*
X159422475Y-90477412D03*
X138200000Y-99000000D03*
X156147011Y-98132662D03*
X153500000Y-89000000D03*
X141250000Y-91500000D03*
X143934399Y-95530333D03*
X157589162Y-99153715D03*
D14*
X156000000Y-94000000D03*
X147000000Y-97500000D03*
D15*
X168500000Y-91495000D03*
D14*
X167000000Y-98000000D03*
X150000000Y-96500000D03*
X155000000Y-94000000D03*
X158250000Y-95750000D03*
X164500000Y-89000000D03*
X155000000Y-92500000D03*
X146800677Y-96531022D03*
X148500000Y-95000000D03*
D16*
X143175736Y-94000000D02*
X138500000Y-94000000D01*
X144000000Y-93600000D02*
X143575736Y-93600000D01*
X143575736Y-93600000D02*
X143175736Y-94000000D01*
D17*
X143934399Y-95530333D02*
X143934399Y-96166729D01*
X143934399Y-96166729D02*
X147750924Y-99983254D01*
X147750924Y-99983254D02*
X156759623Y-99983254D01*
X156759623Y-99983254D02*
X157589162Y-99153715D01*
D16*
X155299998Y-93299998D02*
X155700001Y-93700001D01*
X151200002Y-93299998D02*
X155299998Y-93299998D01*
X147000000Y-97500000D02*
X151200002Y-93299998D01*
X155700001Y-93700001D02*
X156000000Y-94000000D01*
D17*
X172164898Y-107631611D02*
X159000000Y-107631611D01*
X159000000Y-107631611D02*
X145748888Y-107631611D01*
X159000000Y-104000000D02*
X159000000Y-107631611D01*
X168500000Y-91495000D02*
X168500000Y-97844177D01*
X168500000Y-97844177D02*
X173947044Y-103291221D01*
X173947044Y-103291221D02*
X173947044Y-105849465D01*
X173947044Y-105849465D02*
X172164898Y-107631611D01*
X145748888Y-107631611D02*
X144000000Y-105882723D01*
X144000000Y-105882723D02*
X144000000Y-104000000D01*
X174000000Y-104000000D02*
X174000000Y-103985618D01*
X174000000Y-103985618D02*
X174004533Y-103981085D01*
D16*
X165500000Y-96500000D02*
X167000000Y-98000000D01*
X150000000Y-96500000D02*
X165500000Y-96500000D01*
X156750000Y-95750000D02*
X155000000Y-94000000D01*
X158250000Y-95750000D02*
X156750000Y-95750000D01*
X163500000Y-90000000D02*
X164500000Y-89000000D01*
X163500000Y-92500000D02*
X163500000Y-90000000D01*
X155000000Y-92500000D02*
X163500000Y-92500000D01*
X148500000Y-95000000D02*
X146968978Y-96531022D01*
X146968978Y-96531022D02*
X146800677Y-96531022D01*
D18*
G36*
X145169697Y-87814990D02*
X144776371Y-88207630D01*
X144563243Y-88720900D01*
X144562758Y-89276661D01*
X144774990Y-89790303D01*
X145167630Y-90183629D01*
X145680900Y-90396757D01*
X146236661Y-90397242D01*
X146750303Y-90185010D01*
X146955457Y-89980213D01*
X147699392Y-89980213D01*
X147768857Y-90222397D01*
X148292302Y-90409144D01*
X148847368Y-90381362D01*
X149231143Y-90222397D01*
X149300608Y-89980213D01*
X148500000Y-89179605D01*
X147699392Y-89980213D01*
X146955457Y-89980213D01*
X147143629Y-89792370D01*
X147223395Y-89600273D01*
X147277603Y-89731143D01*
X147519787Y-89800608D01*
X148320395Y-89000000D01*
X147519787Y-88199392D01*
X147277603Y-88268857D01*
X147227491Y-88409318D01*
X147145010Y-88209697D01*
X146752370Y-87816371D01*
X146435993Y-87685000D01*
X147992420Y-87685000D01*
X147768857Y-87777603D01*
X147699392Y-88019787D01*
X148500000Y-88820395D01*
X149300608Y-88019787D01*
X149231143Y-87777603D01*
X148971580Y-87685000D01*
X150564298Y-87685000D01*
X150249697Y-87814990D01*
X149856371Y-88207630D01*
X149776605Y-88399727D01*
X149722397Y-88268857D01*
X149480213Y-88199392D01*
X148679605Y-89000000D01*
X149480213Y-89800608D01*
X149722397Y-89731143D01*
X149772509Y-89590682D01*
X149854990Y-89790303D01*
X150247630Y-90183629D01*
X150760900Y-90396757D01*
X151316661Y-90397242D01*
X151830303Y-90185010D01*
X152223629Y-89792370D01*
X152436757Y-89279100D01*
X152437242Y-88723339D01*
X152225010Y-88209697D01*
X151832370Y-87816371D01*
X151515993Y-87685000D01*
X174932533Y-87685000D01*
X175498094Y-87797497D01*
X175920357Y-88079643D01*
X176202503Y-88501906D01*
X176315000Y-89067466D01*
X176315000Y-112932534D01*
X176202503Y-113498094D01*
X175920357Y-113920357D01*
X175498094Y-114202503D01*
X174932533Y-114315000D01*
X133067466Y-114315000D01*
X132501906Y-114202503D01*
X132079643Y-113920357D01*
X131797497Y-113498094D01*
X131685000Y-112932533D01*
X131685000Y-104424040D01*
X132114885Y-104424040D01*
X132324983Y-105132194D01*
X132790087Y-105706042D01*
X133439389Y-106058221D01*
X133580355Y-106087695D01*
X133873000Y-105971572D01*
X133873000Y-104127000D01*
X134127000Y-104127000D01*
X134127000Y-105971572D01*
X134419645Y-106087695D01*
X134560611Y-106058221D01*
X135209913Y-105706042D01*
X135675017Y-105132194D01*
X135885115Y-104424040D01*
X135730382Y-104127000D01*
X134127000Y-104127000D01*
X133873000Y-104127000D01*
X132269618Y-104127000D01*
X132114885Y-104424040D01*
X131685000Y-104424040D01*
X131685000Y-103575960D01*
X132114885Y-103575960D01*
X132269618Y-103873000D01*
X133873000Y-103873000D01*
X133873000Y-102028428D01*
X134127000Y-102028428D01*
X134127000Y-103873000D01*
X135730382Y-103873000D01*
X135816243Y-103708173D01*
X137115000Y-103708173D01*
X137115000Y-104291827D01*
X137258487Y-105013185D01*
X137667104Y-105624723D01*
X138278642Y-106033340D01*
X139000000Y-106176827D01*
X139721358Y-106033340D01*
X140332896Y-105624723D01*
X140741513Y-105013185D01*
X140885000Y-104291827D01*
X140885000Y-103708173D01*
X140741513Y-102986815D01*
X140332896Y-102375277D01*
X139721358Y-101966660D01*
X139000000Y-101823173D01*
X138278642Y-101966660D01*
X137667104Y-102375277D01*
X137258487Y-102986815D01*
X137115000Y-103708173D01*
X135816243Y-103708173D01*
X135885115Y-103575960D01*
X135675017Y-102867806D01*
X135209913Y-102293958D01*
X134560611Y-101941779D01*
X134419645Y-101912305D01*
X134127000Y-102028428D01*
X133873000Y-102028428D01*
X133580355Y-101912305D01*
X133439389Y-101941779D01*
X132790087Y-102293958D01*
X132324983Y-102867806D01*
X132114885Y-103575960D01*
X131685000Y-103575960D01*
X131685000Y-96521834D01*
X132364543Y-96521834D01*
X132764853Y-97490658D01*
X133505443Y-98232542D01*
X134473567Y-98634542D01*
X135521834Y-98635457D01*
X136490658Y-98235147D01*
X137232542Y-97494557D01*
X137634542Y-96526433D01*
X137635457Y-95478166D01*
X137235147Y-94509342D01*
X136911538Y-94185167D01*
X137564838Y-94185167D01*
X137706883Y-94528943D01*
X137969673Y-94792192D01*
X138313201Y-94934838D01*
X138685167Y-94935162D01*
X138927578Y-94835000D01*
X143095185Y-94835000D01*
X143015117Y-94914928D01*
X142849588Y-95313566D01*
X142849211Y-95745206D01*
X142999399Y-96108687D01*
X142999399Y-96166729D01*
X143070572Y-96524538D01*
X143273254Y-96827874D01*
X147089779Y-100644399D01*
X147393115Y-100847081D01*
X147750924Y-100918254D01*
X156759623Y-100918254D01*
X157117432Y-100847081D01*
X157420768Y-100644399D01*
X157841916Y-100223251D01*
X158202962Y-100074069D01*
X158508444Y-99769120D01*
X158673973Y-99370482D01*
X158674350Y-98938842D01*
X158509516Y-98539915D01*
X158204567Y-98234433D01*
X157805929Y-98068904D01*
X157374289Y-98068527D01*
X156975362Y-98233361D01*
X156669880Y-98538310D01*
X156519058Y-98901529D01*
X156372333Y-99048254D01*
X148138214Y-99048254D01*
X147425725Y-98335765D01*
X147528943Y-98293117D01*
X147792192Y-98030327D01*
X147892778Y-97788090D01*
X149064898Y-96615970D01*
X149064838Y-96685167D01*
X149206883Y-97028943D01*
X149469673Y-97292192D01*
X149813201Y-97434838D01*
X150185167Y-97435162D01*
X150427578Y-97335000D01*
X165154132Y-97335000D01*
X166107465Y-98288333D01*
X166206883Y-98528943D01*
X166469673Y-98792192D01*
X166813201Y-98934838D01*
X167185167Y-98935162D01*
X167528943Y-98793117D01*
X167792192Y-98530327D01*
X167816480Y-98471835D01*
X167838855Y-98505322D01*
X172283265Y-102949732D01*
X172258487Y-102986815D01*
X172115000Y-103708173D01*
X172115000Y-104291827D01*
X172258487Y-105013185D01*
X172667104Y-105624723D01*
X172776440Y-105697779D01*
X171777608Y-106696611D01*
X159935000Y-106696611D01*
X159935000Y-105890589D01*
X160332896Y-105624723D01*
X160741513Y-105013185D01*
X160858701Y-104424040D01*
X162114885Y-104424040D01*
X162324983Y-105132194D01*
X162790087Y-105706042D01*
X163439389Y-106058221D01*
X163580355Y-106087695D01*
X163873000Y-105971572D01*
X163873000Y-104127000D01*
X164127000Y-104127000D01*
X164127000Y-105971572D01*
X164419645Y-106087695D01*
X164560611Y-106058221D01*
X165209913Y-105706042D01*
X165675017Y-105132194D01*
X165885115Y-104424040D01*
X165730382Y-104127000D01*
X164127000Y-104127000D01*
X163873000Y-104127000D01*
X162269618Y-104127000D01*
X162114885Y-104424040D01*
X160858701Y-104424040D01*
X160885000Y-104291827D01*
X160885000Y-103708173D01*
X160858702Y-103575960D01*
X162114885Y-103575960D01*
X162269618Y-103873000D01*
X163873000Y-103873000D01*
X163873000Y-102028428D01*
X164127000Y-102028428D01*
X164127000Y-103873000D01*
X165730382Y-103873000D01*
X165816243Y-103708173D01*
X167115000Y-103708173D01*
X167115000Y-104291827D01*
X167258487Y-105013185D01*
X167667104Y-105624723D01*
X168278642Y-106033340D01*
X169000000Y-106176827D01*
X169721358Y-106033340D01*
X170332896Y-105624723D01*
X170741513Y-105013185D01*
X170885000Y-104291827D01*
X170885000Y-103708173D01*
X170741513Y-102986815D01*
X170332896Y-102375277D01*
X169721358Y-101966660D01*
X169000000Y-101823173D01*
X168278642Y-101966660D01*
X167667104Y-102375277D01*
X167258487Y-102986815D01*
X167115000Y-103708173D01*
X165816243Y-103708173D01*
X165885115Y-103575960D01*
X165675017Y-102867806D01*
X165209913Y-102293958D01*
X164560611Y-101941779D01*
X164419645Y-101912305D01*
X164127000Y-102028428D01*
X163873000Y-102028428D01*
X163580355Y-101912305D01*
X163439389Y-101941779D01*
X162790087Y-102293958D01*
X162324983Y-102867806D01*
X162114885Y-103575960D01*
X160858702Y-103575960D01*
X160741513Y-102986815D01*
X160332896Y-102375277D01*
X159721358Y-101966660D01*
X159000000Y-101823173D01*
X158278642Y-101966660D01*
X157667104Y-102375277D01*
X157258487Y-102986815D01*
X157115000Y-103708173D01*
X157115000Y-104291827D01*
X157258487Y-105013185D01*
X157667104Y-105624723D01*
X158065000Y-105890589D01*
X158065000Y-106696611D01*
X146136178Y-106696611D01*
X145171879Y-105732312D01*
X145332896Y-105624723D01*
X145741513Y-105013185D01*
X145858701Y-104424040D01*
X147114885Y-104424040D01*
X147324983Y-105132194D01*
X147790087Y-105706042D01*
X148439389Y-106058221D01*
X148580355Y-106087695D01*
X148873000Y-105971572D01*
X148873000Y-104127000D01*
X149127000Y-104127000D01*
X149127000Y-105971572D01*
X149419645Y-106087695D01*
X149560611Y-106058221D01*
X150209913Y-105706042D01*
X150675017Y-105132194D01*
X150885115Y-104424040D01*
X150730382Y-104127000D01*
X149127000Y-104127000D01*
X148873000Y-104127000D01*
X147269618Y-104127000D01*
X147114885Y-104424040D01*
X145858701Y-104424040D01*
X145885000Y-104291827D01*
X145885000Y-103708173D01*
X145858702Y-103575960D01*
X147114885Y-103575960D01*
X147269618Y-103873000D01*
X148873000Y-103873000D01*
X148873000Y-102028428D01*
X149127000Y-102028428D01*
X149127000Y-103873000D01*
X150730382Y-103873000D01*
X150816243Y-103708173D01*
X152115000Y-103708173D01*
X152115000Y-104291827D01*
X152258487Y-105013185D01*
X152667104Y-105624723D01*
X153278642Y-106033340D01*
X154000000Y-106176827D01*
X154721358Y-106033340D01*
X155332896Y-105624723D01*
X155741513Y-105013185D01*
X155885000Y-104291827D01*
X155885000Y-103708173D01*
X155741513Y-102986815D01*
X155332896Y-102375277D01*
X154721358Y-101966660D01*
X154000000Y-101823173D01*
X153278642Y-101966660D01*
X152667104Y-102375277D01*
X152258487Y-102986815D01*
X152115000Y-103708173D01*
X150816243Y-103708173D01*
X150885115Y-103575960D01*
X150675017Y-102867806D01*
X150209913Y-102293958D01*
X149560611Y-101941779D01*
X149419645Y-101912305D01*
X149127000Y-102028428D01*
X148873000Y-102028428D01*
X148580355Y-101912305D01*
X148439389Y-101941779D01*
X147790087Y-102293958D01*
X147324983Y-102867806D01*
X147114885Y-103575960D01*
X145858702Y-103575960D01*
X145741513Y-102986815D01*
X145332896Y-102375277D01*
X144721358Y-101966660D01*
X144000000Y-101823173D01*
X143278642Y-101966660D01*
X142667104Y-102375277D01*
X142258487Y-102986815D01*
X142115000Y-103708173D01*
X142115000Y-104291827D01*
X142258487Y-105013185D01*
X142667104Y-105624723D01*
X143066804Y-105891795D01*
X143136173Y-106240532D01*
X143338855Y-106543868D01*
X145087743Y-108292756D01*
X145391079Y-108495438D01*
X145748888Y-108566611D01*
X172164898Y-108566611D01*
X172522707Y-108495438D01*
X172826043Y-108292756D01*
X174608189Y-106510610D01*
X174810871Y-106207274D01*
X174864493Y-105937700D01*
X175332896Y-105624723D01*
X175741513Y-105013185D01*
X175885000Y-104291827D01*
X175885000Y-103708173D01*
X175741513Y-102986815D01*
X175332896Y-102375277D01*
X174721358Y-101966660D01*
X174000000Y-101823173D01*
X173834254Y-101856142D01*
X169435000Y-97456887D01*
X169435000Y-96521834D01*
X170364543Y-96521834D01*
X170764853Y-97490658D01*
X171505443Y-98232542D01*
X172473567Y-98634542D01*
X173521834Y-98635457D01*
X174490658Y-98235147D01*
X175232542Y-97494557D01*
X175634542Y-96526433D01*
X175635457Y-95478166D01*
X175235147Y-94509342D01*
X174494557Y-93767458D01*
X173526433Y-93365458D01*
X172478166Y-93364543D01*
X171509342Y-93764853D01*
X170767458Y-94505443D01*
X170365458Y-95473567D01*
X170364543Y-96521834D01*
X169435000Y-96521834D01*
X169435000Y-92072552D01*
X169584811Y-91711767D01*
X169585188Y-91280127D01*
X169420354Y-90881200D01*
X169115405Y-90575718D01*
X168716767Y-90410189D01*
X168285127Y-90409812D01*
X167886200Y-90574646D01*
X167580718Y-90879595D01*
X167415189Y-91278233D01*
X167414812Y-91709873D01*
X167565000Y-92073354D01*
X167565000Y-97242542D01*
X167530327Y-97207808D01*
X167288090Y-97107222D01*
X166090434Y-95909566D01*
X165819541Y-95728561D01*
X165500000Y-95665000D01*
X159185075Y-95665000D01*
X159185162Y-95564833D01*
X159043117Y-95221057D01*
X158780327Y-94957808D01*
X158436799Y-94815162D01*
X158064833Y-94814838D01*
X157822422Y-94915000D01*
X157095868Y-94915000D01*
X156751658Y-94570790D01*
X156792192Y-94530327D01*
X156934838Y-94186799D01*
X156935162Y-93814833D01*
X156793117Y-93471057D01*
X156657297Y-93335000D01*
X163500000Y-93335000D01*
X163819541Y-93271439D01*
X164090434Y-93090434D01*
X164271439Y-92819541D01*
X164335000Y-92500000D01*
X164335000Y-90345868D01*
X164788333Y-89892535D01*
X165028943Y-89793117D01*
X165292192Y-89530327D01*
X165434838Y-89186799D01*
X165435162Y-88814833D01*
X165293117Y-88471057D01*
X165030327Y-88207808D01*
X164686799Y-88065162D01*
X164314833Y-88064838D01*
X163971057Y-88206883D01*
X163707808Y-88469673D01*
X163607222Y-88711910D01*
X162909566Y-89409566D01*
X162728561Y-89680459D01*
X162665000Y-90000000D01*
X162665000Y-91665000D01*
X155427234Y-91665000D01*
X155186799Y-91565162D01*
X154814833Y-91564838D01*
X154471057Y-91706883D01*
X154207808Y-91969673D01*
X154065162Y-92313201D01*
X154065030Y-92464998D01*
X151200002Y-92464998D01*
X150880462Y-92528558D01*
X150609568Y-92709564D01*
X149070790Y-94248342D01*
X149030327Y-94207808D01*
X148686799Y-94065162D01*
X148314833Y-94064838D01*
X147971057Y-94206883D01*
X147707808Y-94469673D01*
X147607222Y-94711910D01*
X146723178Y-95595954D01*
X146615510Y-95595860D01*
X146271734Y-95737905D01*
X146008485Y-96000695D01*
X145865839Y-96344223D01*
X145865515Y-96716189D01*
X145907316Y-96817356D01*
X144965766Y-95875806D01*
X145019210Y-95747100D01*
X145019587Y-95315460D01*
X144854753Y-94916533D01*
X144549804Y-94611051D01*
X144276330Y-94497494D01*
X144528943Y-94393117D01*
X144792192Y-94130327D01*
X144934838Y-93786799D01*
X144935162Y-93414833D01*
X144793117Y-93071057D01*
X144530327Y-92807808D01*
X144186799Y-92665162D01*
X143814833Y-92664838D01*
X143569345Y-92766271D01*
X143256195Y-92828561D01*
X143106533Y-92928562D01*
X142985302Y-93009566D01*
X142829868Y-93165000D01*
X138927234Y-93165000D01*
X138686799Y-93065162D01*
X138314833Y-93064838D01*
X137971057Y-93206883D01*
X137707808Y-93469673D01*
X137565162Y-93813201D01*
X137564838Y-94185167D01*
X136911538Y-94185167D01*
X136494557Y-93767458D01*
X135526433Y-93365458D01*
X134478166Y-93364543D01*
X133509342Y-93764853D01*
X132767458Y-94505443D01*
X132365458Y-95473567D01*
X132364543Y-96521834D01*
X131685000Y-96521834D01*
X131685000Y-89067467D01*
X131797497Y-88501906D01*
X132079643Y-88079643D01*
X132501906Y-87797497D01*
X133067466Y-87685000D01*
X145484298Y-87685000D01*
X145169697Y-87814990D01*
X145169697Y-87814990D01*
G37*
X145169697Y-87814990D02*
X144776371Y-88207630D01*
X144563243Y-88720900D01*
X144562758Y-89276661D01*
X144774990Y-89790303D01*
X145167630Y-90183629D01*
X145680900Y-90396757D01*
X146236661Y-90397242D01*
X146750303Y-90185010D01*
X146955457Y-89980213D01*
X147699392Y-89980213D01*
X147768857Y-90222397D01*
X148292302Y-90409144D01*
X148847368Y-90381362D01*
X149231143Y-90222397D01*
X149300608Y-89980213D01*
X148500000Y-89179605D01*
X147699392Y-89980213D01*
X146955457Y-89980213D01*
X147143629Y-89792370D01*
X147223395Y-89600273D01*
X147277603Y-89731143D01*
X147519787Y-89800608D01*
X148320395Y-89000000D01*
X147519787Y-88199392D01*
X147277603Y-88268857D01*
X147227491Y-88409318D01*
X147145010Y-88209697D01*
X146752370Y-87816371D01*
X146435993Y-87685000D01*
X147992420Y-87685000D01*
X147768857Y-87777603D01*
X147699392Y-88019787D01*
X148500000Y-88820395D01*
X149300608Y-88019787D01*
X149231143Y-87777603D01*
X148971580Y-87685000D01*
X150564298Y-87685000D01*
X150249697Y-87814990D01*
X149856371Y-88207630D01*
X149776605Y-88399727D01*
X149722397Y-88268857D01*
X149480213Y-88199392D01*
X148679605Y-89000000D01*
X149480213Y-89800608D01*
X149722397Y-89731143D01*
X149772509Y-89590682D01*
X149854990Y-89790303D01*
X150247630Y-90183629D01*
X150760900Y-90396757D01*
X151316661Y-90397242D01*
X151830303Y-90185010D01*
X152223629Y-89792370D01*
X152436757Y-89279100D01*
X152437242Y-88723339D01*
X152225010Y-88209697D01*
X151832370Y-87816371D01*
X151515993Y-87685000D01*
X174932533Y-87685000D01*
X175498094Y-87797497D01*
X175920357Y-88079643D01*
X176202503Y-88501906D01*
X176315000Y-89067466D01*
X176315000Y-112932534D01*
X176202503Y-113498094D01*
X175920357Y-113920357D01*
X175498094Y-114202503D01*
X174932533Y-114315000D01*
X133067466Y-114315000D01*
X132501906Y-114202503D01*
X132079643Y-113920357D01*
X131797497Y-113498094D01*
X131685000Y-112932533D01*
X131685000Y-104424040D01*
X132114885Y-104424040D01*
X132324983Y-105132194D01*
X132790087Y-105706042D01*
X133439389Y-106058221D01*
X133580355Y-106087695D01*
X133873000Y-105971572D01*
X133873000Y-104127000D01*
X134127000Y-104127000D01*
X134127000Y-105971572D01*
X134419645Y-106087695D01*
X134560611Y-106058221D01*
X135209913Y-105706042D01*
X135675017Y-105132194D01*
X135885115Y-104424040D01*
X135730382Y-104127000D01*
X134127000Y-104127000D01*
X133873000Y-104127000D01*
X132269618Y-104127000D01*
X132114885Y-104424040D01*
X131685000Y-104424040D01*
X131685000Y-103575960D01*
X132114885Y-103575960D01*
X132269618Y-103873000D01*
X133873000Y-103873000D01*
X133873000Y-102028428D01*
X134127000Y-102028428D01*
X134127000Y-103873000D01*
X135730382Y-103873000D01*
X135816243Y-103708173D01*
X137115000Y-103708173D01*
X137115000Y-104291827D01*
X137258487Y-105013185D01*
X137667104Y-105624723D01*
X138278642Y-106033340D01*
X139000000Y-106176827D01*
X139721358Y-106033340D01*
X140332896Y-105624723D01*
X140741513Y-105013185D01*
X140885000Y-104291827D01*
X140885000Y-103708173D01*
X140741513Y-102986815D01*
X140332896Y-102375277D01*
X139721358Y-101966660D01*
X139000000Y-101823173D01*
X138278642Y-101966660D01*
X137667104Y-102375277D01*
X137258487Y-102986815D01*
X137115000Y-103708173D01*
X135816243Y-103708173D01*
X135885115Y-103575960D01*
X135675017Y-102867806D01*
X135209913Y-102293958D01*
X134560611Y-101941779D01*
X134419645Y-101912305D01*
X134127000Y-102028428D01*
X133873000Y-102028428D01*
X133580355Y-101912305D01*
X133439389Y-101941779D01*
X132790087Y-102293958D01*
X132324983Y-102867806D01*
X132114885Y-103575960D01*
X131685000Y-103575960D01*
X131685000Y-96521834D01*
X132364543Y-96521834D01*
X132764853Y-97490658D01*
X133505443Y-98232542D01*
X134473567Y-98634542D01*
X135521834Y-98635457D01*
X136490658Y-98235147D01*
X137232542Y-97494557D01*
X137634542Y-96526433D01*
X137635457Y-95478166D01*
X137235147Y-94509342D01*
X136911538Y-94185167D01*
X137564838Y-94185167D01*
X137706883Y-94528943D01*
X137969673Y-94792192D01*
X138313201Y-94934838D01*
X138685167Y-94935162D01*
X138927578Y-94835000D01*
X143095185Y-94835000D01*
X143015117Y-94914928D01*
X142849588Y-95313566D01*
X142849211Y-95745206D01*
X142999399Y-96108687D01*
X142999399Y-96166729D01*
X143070572Y-96524538D01*
X143273254Y-96827874D01*
X147089779Y-100644399D01*
X147393115Y-100847081D01*
X147750924Y-100918254D01*
X156759623Y-100918254D01*
X157117432Y-100847081D01*
X157420768Y-100644399D01*
X157841916Y-100223251D01*
X158202962Y-100074069D01*
X158508444Y-99769120D01*
X158673973Y-99370482D01*
X158674350Y-98938842D01*
X158509516Y-98539915D01*
X158204567Y-98234433D01*
X157805929Y-98068904D01*
X157374289Y-98068527D01*
X156975362Y-98233361D01*
X156669880Y-98538310D01*
X156519058Y-98901529D01*
X156372333Y-99048254D01*
X148138214Y-99048254D01*
X147425725Y-98335765D01*
X147528943Y-98293117D01*
X147792192Y-98030327D01*
X147892778Y-97788090D01*
X149064898Y-96615970D01*
X149064838Y-96685167D01*
X149206883Y-97028943D01*
X149469673Y-97292192D01*
X149813201Y-97434838D01*
X150185167Y-97435162D01*
X150427578Y-97335000D01*
X165154132Y-97335000D01*
X166107465Y-98288333D01*
X166206883Y-98528943D01*
X166469673Y-98792192D01*
X166813201Y-98934838D01*
X167185167Y-98935162D01*
X167528943Y-98793117D01*
X167792192Y-98530327D01*
X167816480Y-98471835D01*
X167838855Y-98505322D01*
X172283265Y-102949732D01*
X172258487Y-102986815D01*
X172115000Y-103708173D01*
X172115000Y-104291827D01*
X172258487Y-105013185D01*
X172667104Y-105624723D01*
X172776440Y-105697779D01*
X171777608Y-106696611D01*
X159935000Y-106696611D01*
X159935000Y-105890589D01*
X160332896Y-105624723D01*
X160741513Y-105013185D01*
X160858701Y-104424040D01*
X162114885Y-104424040D01*
X162324983Y-105132194D01*
X162790087Y-105706042D01*
X163439389Y-106058221D01*
X163580355Y-106087695D01*
X163873000Y-105971572D01*
X163873000Y-104127000D01*
X164127000Y-104127000D01*
X164127000Y-105971572D01*
X164419645Y-106087695D01*
X164560611Y-106058221D01*
X165209913Y-105706042D01*
X165675017Y-105132194D01*
X165885115Y-104424040D01*
X165730382Y-104127000D01*
X164127000Y-104127000D01*
X163873000Y-104127000D01*
X162269618Y-104127000D01*
X162114885Y-104424040D01*
X160858701Y-104424040D01*
X160885000Y-104291827D01*
X160885000Y-103708173D01*
X160858702Y-103575960D01*
X162114885Y-103575960D01*
X162269618Y-103873000D01*
X163873000Y-103873000D01*
X163873000Y-102028428D01*
X164127000Y-102028428D01*
X164127000Y-103873000D01*
X165730382Y-103873000D01*
X165816243Y-103708173D01*
X167115000Y-103708173D01*
X167115000Y-104291827D01*
X167258487Y-105013185D01*
X167667104Y-105624723D01*
X168278642Y-106033340D01*
X169000000Y-106176827D01*
X169721358Y-106033340D01*
X170332896Y-105624723D01*
X170741513Y-105013185D01*
X170885000Y-104291827D01*
X170885000Y-103708173D01*
X170741513Y-102986815D01*
X170332896Y-102375277D01*
X169721358Y-101966660D01*
X169000000Y-101823173D01*
X168278642Y-101966660D01*
X167667104Y-102375277D01*
X167258487Y-102986815D01*
X167115000Y-103708173D01*
X165816243Y-103708173D01*
X165885115Y-103575960D01*
X165675017Y-102867806D01*
X165209913Y-102293958D01*
X164560611Y-101941779D01*
X164419645Y-101912305D01*
X164127000Y-102028428D01*
X163873000Y-102028428D01*
X163580355Y-101912305D01*
X163439389Y-101941779D01*
X162790087Y-102293958D01*
X162324983Y-102867806D01*
X162114885Y-103575960D01*
X160858702Y-103575960D01*
X160741513Y-102986815D01*
X160332896Y-102375277D01*
X159721358Y-101966660D01*
X159000000Y-101823173D01*
X158278642Y-101966660D01*
X157667104Y-102375277D01*
X157258487Y-102986815D01*
X157115000Y-103708173D01*
X157115000Y-104291827D01*
X157258487Y-105013185D01*
X157667104Y-105624723D01*
X158065000Y-105890589D01*
X158065000Y-106696611D01*
X146136178Y-106696611D01*
X145171879Y-105732312D01*
X145332896Y-105624723D01*
X145741513Y-105013185D01*
X145858701Y-104424040D01*
X147114885Y-104424040D01*
X147324983Y-105132194D01*
X147790087Y-105706042D01*
X148439389Y-106058221D01*
X148580355Y-106087695D01*
X148873000Y-105971572D01*
X148873000Y-104127000D01*
X149127000Y-104127000D01*
X149127000Y-105971572D01*
X149419645Y-106087695D01*
X149560611Y-106058221D01*
X150209913Y-105706042D01*
X150675017Y-105132194D01*
X150885115Y-104424040D01*
X150730382Y-104127000D01*
X149127000Y-104127000D01*
X148873000Y-104127000D01*
X147269618Y-104127000D01*
X147114885Y-104424040D01*
X145858701Y-104424040D01*
X145885000Y-104291827D01*
X145885000Y-103708173D01*
X145858702Y-103575960D01*
X147114885Y-103575960D01*
X147269618Y-103873000D01*
X148873000Y-103873000D01*
X148873000Y-102028428D01*
X149127000Y-102028428D01*
X149127000Y-103873000D01*
X150730382Y-103873000D01*
X150816243Y-103708173D01*
X152115000Y-103708173D01*
X152115000Y-104291827D01*
X152258487Y-105013185D01*
X152667104Y-105624723D01*
X153278642Y-106033340D01*
X154000000Y-106176827D01*
X154721358Y-106033340D01*
X155332896Y-105624723D01*
X155741513Y-105013185D01*
X155885000Y-104291827D01*
X155885000Y-103708173D01*
X155741513Y-102986815D01*
X155332896Y-102375277D01*
X154721358Y-101966660D01*
X154000000Y-101823173D01*
X153278642Y-101966660D01*
X152667104Y-102375277D01*
X152258487Y-102986815D01*
X152115000Y-103708173D01*
X150816243Y-103708173D01*
X150885115Y-103575960D01*
X150675017Y-102867806D01*
X150209913Y-102293958D01*
X149560611Y-101941779D01*
X149419645Y-101912305D01*
X149127000Y-102028428D01*
X148873000Y-102028428D01*
X148580355Y-101912305D01*
X148439389Y-101941779D01*
X147790087Y-102293958D01*
X147324983Y-102867806D01*
X147114885Y-103575960D01*
X145858702Y-103575960D01*
X145741513Y-102986815D01*
X145332896Y-102375277D01*
X144721358Y-101966660D01*
X144000000Y-101823173D01*
X143278642Y-101966660D01*
X142667104Y-102375277D01*
X142258487Y-102986815D01*
X142115000Y-103708173D01*
X142115000Y-104291827D01*
X142258487Y-105013185D01*
X142667104Y-105624723D01*
X143066804Y-105891795D01*
X143136173Y-106240532D01*
X143338855Y-106543868D01*
X145087743Y-108292756D01*
X145391079Y-108495438D01*
X145748888Y-108566611D01*
X172164898Y-108566611D01*
X172522707Y-108495438D01*
X172826043Y-108292756D01*
X174608189Y-106510610D01*
X174810871Y-106207274D01*
X174864493Y-105937700D01*
X175332896Y-105624723D01*
X175741513Y-105013185D01*
X175885000Y-104291827D01*
X175885000Y-103708173D01*
X175741513Y-102986815D01*
X175332896Y-102375277D01*
X174721358Y-101966660D01*
X174000000Y-101823173D01*
X173834254Y-101856142D01*
X169435000Y-97456887D01*
X169435000Y-96521834D01*
X170364543Y-96521834D01*
X170764853Y-97490658D01*
X171505443Y-98232542D01*
X172473567Y-98634542D01*
X173521834Y-98635457D01*
X174490658Y-98235147D01*
X175232542Y-97494557D01*
X175634542Y-96526433D01*
X175635457Y-95478166D01*
X175235147Y-94509342D01*
X174494557Y-93767458D01*
X173526433Y-93365458D01*
X172478166Y-93364543D01*
X171509342Y-93764853D01*
X170767458Y-94505443D01*
X170365458Y-95473567D01*
X170364543Y-96521834D01*
X169435000Y-96521834D01*
X169435000Y-92072552D01*
X169584811Y-91711767D01*
X169585188Y-91280127D01*
X169420354Y-90881200D01*
X169115405Y-90575718D01*
X168716767Y-90410189D01*
X168285127Y-90409812D01*
X167886200Y-90574646D01*
X167580718Y-90879595D01*
X167415189Y-91278233D01*
X167414812Y-91709873D01*
X167565000Y-92073354D01*
X167565000Y-97242542D01*
X167530327Y-97207808D01*
X167288090Y-97107222D01*
X166090434Y-95909566D01*
X165819541Y-95728561D01*
X165500000Y-95665000D01*
X159185075Y-95665000D01*
X159185162Y-95564833D01*
X159043117Y-95221057D01*
X158780327Y-94957808D01*
X158436799Y-94815162D01*
X158064833Y-94814838D01*
X157822422Y-94915000D01*
X157095868Y-94915000D01*
X156751658Y-94570790D01*
X156792192Y-94530327D01*
X156934838Y-94186799D01*
X156935162Y-93814833D01*
X156793117Y-93471057D01*
X156657297Y-93335000D01*
X163500000Y-93335000D01*
X163819541Y-93271439D01*
X164090434Y-93090434D01*
X164271439Y-92819541D01*
X164335000Y-92500000D01*
X164335000Y-90345868D01*
X164788333Y-89892535D01*
X165028943Y-89793117D01*
X165292192Y-89530327D01*
X165434838Y-89186799D01*
X165435162Y-88814833D01*
X165293117Y-88471057D01*
X165030327Y-88207808D01*
X164686799Y-88065162D01*
X164314833Y-88064838D01*
X163971057Y-88206883D01*
X163707808Y-88469673D01*
X163607222Y-88711910D01*
X162909566Y-89409566D01*
X162728561Y-89680459D01*
X162665000Y-90000000D01*
X162665000Y-91665000D01*
X155427234Y-91665000D01*
X155186799Y-91565162D01*
X154814833Y-91564838D01*
X154471057Y-91706883D01*
X154207808Y-91969673D01*
X154065162Y-92313201D01*
X154065030Y-92464998D01*
X151200002Y-92464998D01*
X150880462Y-92528558D01*
X150609568Y-92709564D01*
X149070790Y-94248342D01*
X149030327Y-94207808D01*
X148686799Y-94065162D01*
X148314833Y-94064838D01*
X147971057Y-94206883D01*
X147707808Y-94469673D01*
X147607222Y-94711910D01*
X146723178Y-95595954D01*
X146615510Y-95595860D01*
X146271734Y-95737905D01*
X146008485Y-96000695D01*
X145865839Y-96344223D01*
X145865515Y-96716189D01*
X145907316Y-96817356D01*
X144965766Y-95875806D01*
X145019210Y-95747100D01*
X145019587Y-95315460D01*
X144854753Y-94916533D01*
X144549804Y-94611051D01*
X144276330Y-94497494D01*
X144528943Y-94393117D01*
X144792192Y-94130327D01*
X144934838Y-93786799D01*
X144935162Y-93414833D01*
X144793117Y-93071057D01*
X144530327Y-92807808D01*
X144186799Y-92665162D01*
X143814833Y-92664838D01*
X143569345Y-92766271D01*
X143256195Y-92828561D01*
X143106533Y-92928562D01*
X142985302Y-93009566D01*
X142829868Y-93165000D01*
X138927234Y-93165000D01*
X138686799Y-93065162D01*
X138314833Y-93064838D01*
X137971057Y-93206883D01*
X137707808Y-93469673D01*
X137565162Y-93813201D01*
X137564838Y-94185167D01*
X136911538Y-94185167D01*
X136494557Y-93767458D01*
X135526433Y-93365458D01*
X134478166Y-93364543D01*
X133509342Y-93764853D01*
X132767458Y-94505443D01*
X132365458Y-95473567D01*
X132364543Y-96521834D01*
X131685000Y-96521834D01*
X131685000Y-89067467D01*
X131797497Y-88501906D01*
X132079643Y-88079643D01*
X132501906Y-87797497D01*
X133067466Y-87685000D01*
X145484298Y-87685000D01*
X145169697Y-87814990D01*
M02*
