G04 #@! TF.FileFunction,Copper,L1,Top,Signal*
%FSLAX46Y46*%
G04 Gerber Fmt 4.6, Leading zero omitted, Abs format (unit mm)*
G04 Created by KiCad (PCBNEW 4.0.7-e2-6376~58~ubuntu16.04.1) date Wed Aug 15 22:35:47 2018*
%MOMM*%
%LPD*%
G01*
G04 APERTURE LIST*
%ADD10C,0.100000*%
%ADD11R,1.250000X1.000000*%
%ADD12O,2.500000X3.000000*%
%ADD13R,1.300000X0.700000*%
%ADD14R,1.450000X0.450000*%
%ADD15R,1.500000X3.000000*%
%ADD16C,1.524000*%
%ADD17R,0.970000X1.270000*%
%ADD18C,4.000000*%
%ADD19C,0.600000*%
%ADD20C,0.900000*%
%ADD21C,0.400000*%
%ADD22C,0.600000*%
G04 APERTURE END LIST*
D10*
D11*
X140000000Y-94500000D03*
X140000000Y-92500000D03*
X142500000Y-94500000D03*
X142500000Y-92500000D03*
X154500000Y-95500000D03*
X154500000Y-97500000D03*
D12*
X134000000Y-104000000D03*
X139000000Y-104000000D03*
X144000000Y-104000000D03*
X149000000Y-104000000D03*
X154000000Y-104000000D03*
X159000000Y-104000000D03*
X164000000Y-104000000D03*
X169000000Y-104000000D03*
X174000000Y-104000000D03*
D13*
X142500000Y-90450000D03*
X142500000Y-88550000D03*
X140000000Y-90450000D03*
X140000000Y-88550000D03*
X142500000Y-98450000D03*
X142500000Y-96550000D03*
X140000000Y-98450000D03*
X140000000Y-96550000D03*
D14*
X145550000Y-92075000D03*
X145550000Y-92725000D03*
X145550000Y-93375000D03*
X145550000Y-94025000D03*
X145550000Y-94675000D03*
X145550000Y-95325000D03*
X145550000Y-95975000D03*
X145550000Y-96625000D03*
X145550000Y-97275000D03*
X145550000Y-97925000D03*
X151450000Y-97925000D03*
X151450000Y-97275000D03*
X151450000Y-96625000D03*
X151450000Y-95975000D03*
X151450000Y-95325000D03*
X151450000Y-94675000D03*
X151450000Y-94025000D03*
X151450000Y-93375000D03*
X151450000Y-92725000D03*
X151450000Y-92075000D03*
D15*
X161825000Y-91250000D03*
X163095000Y-95750000D03*
X164365000Y-91250000D03*
X165635000Y-95750000D03*
X166905000Y-91250000D03*
X168175000Y-95750000D03*
D16*
X145960000Y-89000000D03*
X148500000Y-89000000D03*
X151040000Y-89000000D03*
D17*
X154730000Y-91000000D03*
X156000000Y-91000000D03*
X157270000Y-91000000D03*
D18*
X173000000Y-96000000D03*
X135000000Y-96000000D03*
D19*
X138500000Y-94000000D03*
X144000000Y-93600000D03*
D20*
X159422475Y-90477412D03*
X138200000Y-99000000D03*
X156147011Y-98132662D03*
X153500000Y-89000000D03*
X141250000Y-91500000D03*
X143934399Y-95530333D03*
X157589162Y-99153715D03*
D19*
X156000000Y-94000000D03*
X147000000Y-97500000D03*
D20*
X168500000Y-91495000D03*
D19*
X167000000Y-98000000D03*
X150000000Y-96500000D03*
X155000000Y-94000000D03*
X158250000Y-95750000D03*
X164500000Y-89000000D03*
X155000000Y-92500000D03*
X146800677Y-96531022D03*
X148500000Y-95000000D03*
D21*
X138500000Y-94000000D02*
X139500000Y-94000000D01*
X139500000Y-94000000D02*
X140000000Y-94500000D01*
X145550000Y-94025000D02*
X144425000Y-94025000D01*
X144425000Y-94025000D02*
X144000000Y-93600000D01*
D22*
X159872474Y-90927411D02*
X159422475Y-90477412D01*
X160195063Y-91250000D02*
X159872474Y-90927411D01*
X161825000Y-91250000D02*
X160195063Y-91250000D01*
X140000000Y-98450000D02*
X138750000Y-98450000D01*
X138750000Y-98450000D02*
X138200000Y-99000000D01*
X156147011Y-97922011D02*
X156147011Y-98132662D01*
X155725000Y-97500000D02*
X156147011Y-97922011D01*
X154500000Y-97500000D02*
X155725000Y-97500000D01*
X153500000Y-89620000D02*
X153500000Y-89000000D01*
X154730000Y-91000000D02*
X154730000Y-90850000D01*
X154730000Y-90850000D02*
X153500000Y-89620000D01*
D21*
X153000000Y-95750000D02*
X153000000Y-96125000D01*
X152575000Y-95325000D02*
X153000000Y-95750000D01*
X151450000Y-95325000D02*
X152575000Y-95325000D01*
X153000000Y-96125000D02*
X154375000Y-97500000D01*
D22*
X154375000Y-97500000D02*
X154500000Y-97500000D01*
X141250000Y-92500000D02*
X140000000Y-92500000D01*
X142500000Y-92500000D02*
X141250000Y-92500000D01*
X141250000Y-92500000D02*
X141250000Y-91500000D01*
D21*
X145550000Y-92075000D02*
X142925000Y-92075000D01*
X142925000Y-92075000D02*
X142500000Y-92500000D01*
D22*
X140000000Y-90450000D02*
X140000000Y-92500000D01*
X165635000Y-96500000D02*
X163135000Y-99000000D01*
X157589162Y-99153715D02*
X162981285Y-99153715D01*
X162981285Y-99153715D02*
X163135000Y-99000000D01*
X165635000Y-95750000D02*
X165635000Y-96500000D01*
X143934399Y-94893937D02*
X143934399Y-95530333D01*
X143934399Y-94709399D02*
X143934399Y-94893937D01*
X143725000Y-94500000D02*
X143934399Y-94709399D01*
X142500000Y-94500000D02*
X143725000Y-94500000D01*
X157589162Y-98517319D02*
X157589162Y-99153715D01*
X157589162Y-97564162D02*
X157589162Y-98517319D01*
X156000000Y-95975000D02*
X157589162Y-97564162D01*
X155525000Y-95500000D02*
X156000000Y-95975000D01*
X157270000Y-91000000D02*
X157270000Y-94705000D01*
X157270000Y-94705000D02*
X156000000Y-95975000D01*
X154500000Y-95500000D02*
X155525000Y-95500000D01*
D21*
X145550000Y-94675000D02*
X144000000Y-94675000D01*
X144000000Y-94675000D02*
X142675000Y-94675000D01*
X151450000Y-94675000D02*
X153675000Y-94675000D01*
X153675000Y-94675000D02*
X154500000Y-95500000D01*
D22*
X142675000Y-94675000D02*
X142500000Y-94500000D01*
D21*
X156000000Y-94000000D02*
X156000000Y-91000000D01*
X146775000Y-97275000D02*
X147000000Y-97500000D01*
X145550000Y-97275000D02*
X146775000Y-97275000D01*
D22*
X166905000Y-91250000D02*
X168255000Y-91250000D01*
X168255000Y-91250000D02*
X168500000Y-91495000D01*
D21*
X145550000Y-95325000D02*
X146768545Y-95325000D01*
X147700002Y-96256457D02*
X147700002Y-97836002D01*
X146768545Y-95325000D02*
X147700002Y-96256457D01*
X147700002Y-97836002D02*
X147336002Y-98200002D01*
X140650000Y-104000000D02*
X139000000Y-104000000D01*
X147336002Y-98200002D02*
X146803890Y-98200002D01*
X146803890Y-98200002D02*
X141003892Y-104000000D01*
X141003892Y-104000000D02*
X140650000Y-104000000D01*
X148600011Y-96307923D02*
X148600011Y-96700011D01*
X147600009Y-92455007D02*
X147600009Y-95307921D01*
X146595001Y-91449999D02*
X147600009Y-92455007D01*
X144549999Y-91449999D02*
X146595001Y-91449999D01*
X147600009Y-95307921D02*
X148600011Y-96307923D01*
X143550000Y-90450000D02*
X144549999Y-91449999D01*
X142500000Y-90450000D02*
X143550000Y-90450000D01*
X148600011Y-96700011D02*
X154000000Y-102100000D01*
X154000000Y-102100000D02*
X154000000Y-104000000D01*
X167000000Y-98000000D02*
X167000000Y-96925000D01*
X167000000Y-96925000D02*
X168175000Y-95750000D01*
X150200000Y-96500000D02*
X150000000Y-96500000D01*
X151450000Y-96625000D02*
X150325000Y-96625000D01*
X150325000Y-96625000D02*
X150200000Y-96500000D01*
X151450000Y-94025000D02*
X154975000Y-94025000D01*
X154975000Y-94025000D02*
X155000000Y-94000000D01*
X163095000Y-95750000D02*
X158250000Y-95750000D01*
X164500000Y-89000000D02*
X164500000Y-91115000D01*
X164500000Y-91115000D02*
X164365000Y-91250000D01*
X154125000Y-93375000D02*
X155000000Y-92500000D01*
X151450000Y-93375000D02*
X154125000Y-93375000D01*
X146721999Y-89761999D02*
X147610542Y-89761999D01*
X150573543Y-92725000D02*
X151450000Y-92725000D01*
X145960000Y-89000000D02*
X146721999Y-89761999D01*
X147610542Y-89761999D02*
X150573543Y-92725000D01*
X151040000Y-89000000D02*
X151040000Y-91665000D01*
X151040000Y-91665000D02*
X151450000Y-92075000D01*
X142500000Y-98450000D02*
X141517159Y-98450000D01*
X141517159Y-98450000D02*
X141050001Y-98917158D01*
X141050001Y-98917158D02*
X141050001Y-99120001D01*
X165145800Y-106204200D02*
X167350000Y-104000000D01*
X141050001Y-99120001D02*
X140970001Y-99200001D01*
X140970001Y-99200001D02*
X140767158Y-99200001D01*
X140767158Y-99200001D02*
X137058478Y-102908681D01*
X137058478Y-102908681D02*
X137058478Y-105100511D01*
X137058478Y-105100511D02*
X138162167Y-106204200D01*
X138162167Y-106204200D02*
X165145800Y-106204200D01*
X167350000Y-104000000D02*
X169000000Y-104000000D01*
X142500000Y-88550000D02*
X140000000Y-88550000D01*
X145550000Y-95975000D02*
X146570002Y-95975000D01*
X146570002Y-95975000D02*
X146800677Y-96205675D01*
X146800677Y-96205675D02*
X146800677Y-96531022D01*
X148500000Y-92506455D02*
X148500000Y-95000000D01*
X142800000Y-88550000D02*
X145099988Y-90849988D01*
X146843533Y-90849988D02*
X148500000Y-92506455D01*
X142500000Y-88550000D02*
X142800000Y-88550000D01*
X145099988Y-90849988D02*
X146843533Y-90849988D01*
X142500000Y-96550000D02*
X140000000Y-96550000D01*
X145550000Y-96625000D02*
X142575000Y-96625000D01*
X142575000Y-96625000D02*
X142500000Y-96550000D01*
M02*
