G04 #@! TF.FileFunction,Soldermask,Top*
%FSLAX46Y46*%
G04 Gerber Fmt 4.6, Leading zero omitted, Abs format (unit mm)*
G04 Created by KiCad (PCBNEW 4.0.7-e2-6376~58~ubuntu16.04.1) date Wed Aug 15 22:35:47 2018*
%MOMM*%
%LPD*%
G01*
G04 APERTURE LIST*
%ADD10C,0.100000*%
%ADD11R,1.250000X1.000000*%
%ADD12O,2.500000X3.000000*%
%ADD13R,1.300000X0.700000*%
%ADD14R,1.450000X0.450000*%
%ADD15R,1.500000X3.000000*%
%ADD16C,1.524000*%
%ADD17R,0.970000X1.270000*%
G04 APERTURE END LIST*
D10*
D11*
X140000000Y-94500000D03*
X140000000Y-92500000D03*
X142500000Y-94500000D03*
X142500000Y-92500000D03*
X154500000Y-95500000D03*
X154500000Y-97500000D03*
D12*
X134000000Y-104000000D03*
X139000000Y-104000000D03*
X144000000Y-104000000D03*
X149000000Y-104000000D03*
X154000000Y-104000000D03*
X159000000Y-104000000D03*
X164000000Y-104000000D03*
X169000000Y-104000000D03*
X174000000Y-104000000D03*
D13*
X142500000Y-90450000D03*
X142500000Y-88550000D03*
X140000000Y-90450000D03*
X140000000Y-88550000D03*
X142500000Y-98450000D03*
X142500000Y-96550000D03*
X140000000Y-98450000D03*
X140000000Y-96550000D03*
D14*
X145550000Y-92075000D03*
X145550000Y-92725000D03*
X145550000Y-93375000D03*
X145550000Y-94025000D03*
X145550000Y-94675000D03*
X145550000Y-95325000D03*
X145550000Y-95975000D03*
X145550000Y-96625000D03*
X145550000Y-97275000D03*
X145550000Y-97925000D03*
X151450000Y-97925000D03*
X151450000Y-97275000D03*
X151450000Y-96625000D03*
X151450000Y-95975000D03*
X151450000Y-95325000D03*
X151450000Y-94675000D03*
X151450000Y-94025000D03*
X151450000Y-93375000D03*
X151450000Y-92725000D03*
X151450000Y-92075000D03*
D15*
X161825000Y-91250000D03*
X163095000Y-95750000D03*
X164365000Y-91250000D03*
X165635000Y-95750000D03*
X166905000Y-91250000D03*
X168175000Y-95750000D03*
D16*
X145960000Y-89000000D03*
X148500000Y-89000000D03*
X151040000Y-89000000D03*
D17*
X154730000Y-91000000D03*
X156000000Y-91000000D03*
X157270000Y-91000000D03*
M02*
