G04 #@! TF.FileFunction,Copper,L1,Top,Signal*
%FSLAX46Y46*%
G04 Gerber Fmt 4.6, Leading zero omitted, Abs format (unit mm)*
G04 Created by KiCad (PCBNEW 4.0.7-e2-6376~58~ubuntu16.04.1) date Wed Dec 26 14:08:53 2018*
%MOMM*%
%LPD*%
G01*
G04 APERTURE LIST*
%ADD10C,0.100000*%
%ADD11R,1.000000X1.250000*%
%ADD12R,1.250000X1.000000*%
%ADD13R,1.270000X0.970000*%
%ADD14R,0.700000X1.300000*%
%ADD15R,1.450000X0.450000*%
%ADD16R,1.060000X0.650000*%
%ADD17R,1.500000X3.000000*%
%ADD18C,1.524000*%
%ADD19R,1.750000X1.750000*%
%ADD20C,1.750000*%
%ADD21C,4.000000*%
%ADD22C,0.900000*%
%ADD23C,0.600000*%
%ADD24C,0.400000*%
%ADD25C,0.600000*%
G04 APERTURE END LIST*
D10*
D11*
X179000000Y-90000000D03*
X177000000Y-90000000D03*
X192000000Y-92000000D03*
X194000000Y-92000000D03*
X177000000Y-96000000D03*
X179000000Y-96000000D03*
X161000000Y-96000000D03*
X159000000Y-96000000D03*
D12*
X161000000Y-93000000D03*
X161000000Y-91000000D03*
D11*
X161000000Y-102000000D03*
X163000000Y-102000000D03*
X173000000Y-102000000D03*
X175000000Y-102000000D03*
D12*
X185000000Y-103000000D03*
X185000000Y-105000000D03*
X194500000Y-103000000D03*
X194500000Y-105000000D03*
X204000000Y-103000000D03*
X204000000Y-105000000D03*
X213500000Y-103000000D03*
X213500000Y-105000000D03*
D13*
X196500000Y-96770000D03*
X196500000Y-95500000D03*
X196500000Y-94230000D03*
D14*
X177050000Y-93000000D03*
X178950000Y-93000000D03*
X156050000Y-102000000D03*
X157950000Y-102000000D03*
X168050000Y-102000000D03*
X169950000Y-102000000D03*
X180050000Y-102000000D03*
X181950000Y-102000000D03*
X189550000Y-102000000D03*
X191450000Y-102000000D03*
X199050000Y-102000000D03*
X200950000Y-102000000D03*
X208550000Y-102000000D03*
X210450000Y-102000000D03*
X156050000Y-106000000D03*
X157950000Y-106000000D03*
X161050000Y-106000000D03*
X162950000Y-106000000D03*
X168050000Y-106000000D03*
X169950000Y-106000000D03*
X173050000Y-106000000D03*
X174950000Y-106000000D03*
X180050000Y-106000000D03*
X181950000Y-106000000D03*
X189550000Y-106000000D03*
X191450000Y-106000000D03*
X199050000Y-106000000D03*
X200950000Y-106000000D03*
X208550000Y-106000000D03*
X210450000Y-106000000D03*
D15*
X183050000Y-90075000D03*
X183050000Y-90725000D03*
X183050000Y-91375000D03*
X183050000Y-92025000D03*
X183050000Y-92675000D03*
X183050000Y-93325000D03*
X183050000Y-93975000D03*
X183050000Y-94625000D03*
X183050000Y-95275000D03*
X183050000Y-95925000D03*
X188950000Y-95925000D03*
X188950000Y-95275000D03*
X188950000Y-94625000D03*
X188950000Y-93975000D03*
X188950000Y-93325000D03*
X188950000Y-92675000D03*
X188950000Y-92025000D03*
X188950000Y-91375000D03*
X188950000Y-90725000D03*
X188950000Y-90075000D03*
D16*
X155900000Y-91050000D03*
X155900000Y-92000000D03*
X155900000Y-92950000D03*
X158100000Y-92950000D03*
X158100000Y-91050000D03*
D17*
X144825000Y-99750000D03*
X146095000Y-104250000D03*
X147365000Y-99750000D03*
X148635000Y-104250000D03*
X149905000Y-99750000D03*
X151175000Y-104250000D03*
D18*
X200460000Y-91000000D03*
X203000000Y-91000000D03*
X205540000Y-91000000D03*
D19*
X145000000Y-113000000D03*
D20*
X147500000Y-113000000D03*
X150000000Y-113000000D03*
D19*
X157000000Y-113000000D03*
D20*
X159500000Y-113000000D03*
X162000000Y-113000000D03*
D19*
X169000000Y-113000000D03*
D20*
X171500000Y-113000000D03*
X174000000Y-113000000D03*
D19*
X181000000Y-113000000D03*
D20*
X183500000Y-113000000D03*
D19*
X190500000Y-113000000D03*
D20*
X193000000Y-113000000D03*
D19*
X200000000Y-113000000D03*
D20*
X202500000Y-113000000D03*
D19*
X209500000Y-113000000D03*
D20*
X212000000Y-113000000D03*
D21*
X144000000Y-90000000D03*
X213000000Y-90000000D03*
D22*
X193725000Y-93500000D03*
X194500000Y-97000000D03*
X175640925Y-96350010D03*
X157000000Y-92000000D03*
X175451014Y-90701165D03*
X180814289Y-90977649D03*
X193859075Y-90149990D03*
X212500000Y-106000000D03*
X203000000Y-106000000D03*
X193500000Y-106000000D03*
X184000000Y-106000000D03*
X175000000Y-104000000D03*
X163000000Y-104000000D03*
X163000000Y-93000000D03*
X144175000Y-97000000D03*
D23*
X147500000Y-107000000D03*
X154000000Y-98500000D03*
X173500000Y-93500000D03*
X185000000Y-93000000D03*
X152795312Y-99280999D03*
X187471190Y-94471026D03*
X151000000Y-107000000D03*
X173500000Y-94500000D03*
X186517596Y-92057086D03*
X173000000Y-88500000D03*
X185299990Y-90000000D03*
X173000000Y-89500000D03*
X187225000Y-90674990D03*
X187500000Y-89500000D03*
X185565133Y-94976714D03*
X173500000Y-95500000D03*
D24*
X183050000Y-92025000D02*
X180000000Y-92025000D01*
X180000000Y-92025000D02*
X179000000Y-91025000D01*
X179000000Y-91025000D02*
X179000000Y-90000000D01*
D25*
X194730000Y-96770000D02*
X194500000Y-97000000D01*
X196500000Y-96770000D02*
X194730000Y-96770000D01*
X175640925Y-96259075D02*
X175640925Y-96350010D01*
X175900000Y-96000000D02*
X175640925Y-96259075D01*
X177000000Y-96000000D02*
X175900000Y-96000000D01*
X156500000Y-92000000D02*
X157000000Y-92000000D01*
X155900000Y-92000000D02*
X156500000Y-92000000D01*
X175451014Y-90448986D02*
X175451014Y-90701165D01*
X175900000Y-90000000D02*
X175451014Y-90448986D01*
X177000000Y-90000000D02*
X175900000Y-90000000D01*
D24*
X181264288Y-90527650D02*
X180814289Y-90977649D01*
X181716938Y-90075000D02*
X181264288Y-90527650D01*
X183050000Y-90075000D02*
X181716938Y-90075000D01*
D25*
X193859075Y-90359075D02*
X193859075Y-90149990D01*
X194000000Y-90500000D02*
X193859075Y-90359075D01*
X194000000Y-92000000D02*
X194000000Y-90500000D01*
X175000000Y-104000000D02*
X175000000Y-105950000D01*
X175000000Y-102000000D02*
X175000000Y-104000000D01*
X163000000Y-104000000D02*
X163000000Y-105950000D01*
X163000000Y-102000000D02*
X163000000Y-104000000D01*
X175000000Y-105950000D02*
X174950000Y-106000000D01*
X163000000Y-105950000D02*
X162950000Y-106000000D01*
X210450000Y-106000000D02*
X212500000Y-106000000D01*
X212500000Y-106000000D02*
X213500000Y-105000000D01*
X200950000Y-106000000D02*
X203000000Y-106000000D01*
X203000000Y-106000000D02*
X204000000Y-105000000D01*
X191450000Y-106000000D02*
X193500000Y-106000000D01*
X193500000Y-106000000D02*
X194500000Y-105000000D01*
X181950000Y-106000000D02*
X184000000Y-106000000D01*
X184000000Y-106000000D02*
X185000000Y-105000000D01*
X161000000Y-93000000D02*
X163000000Y-93000000D01*
X161000000Y-93000000D02*
X161000000Y-96000000D01*
D24*
X188950000Y-93325000D02*
X190325000Y-93325000D01*
X190325000Y-93325000D02*
X190500000Y-93500000D01*
D25*
X193725000Y-93500000D02*
X190500000Y-93500000D01*
X194000000Y-92000000D02*
X194000000Y-93225000D01*
X194000000Y-93225000D02*
X193725000Y-93500000D01*
X144825000Y-99750000D02*
X144825000Y-97650000D01*
X144825000Y-97650000D02*
X144175000Y-97000000D01*
X206500000Y-88500000D02*
X215000000Y-97000000D01*
X196500000Y-94230000D02*
X196500000Y-90000000D01*
X196500000Y-90000000D02*
X196000000Y-89500000D01*
X175483355Y-88500000D02*
X172983355Y-91000000D01*
X189725000Y-88500000D02*
X175483355Y-88500000D01*
X195000000Y-88500000D02*
X189725000Y-88500000D01*
X195000000Y-88500000D02*
X206500000Y-88500000D01*
X215000000Y-97000000D02*
X215000000Y-110000000D01*
X215000000Y-110000000D02*
X212000000Y-113000000D01*
X212000000Y-113000000D02*
X212000000Y-113150002D01*
X212000000Y-113150002D02*
X209650002Y-115500000D01*
X209650002Y-115500000D02*
X202500000Y-115500000D01*
X202500000Y-115500000D02*
X193000000Y-115500000D01*
X202500000Y-113000000D02*
X202500000Y-115500000D01*
X193000000Y-115500000D02*
X186000000Y-115500000D01*
X193000000Y-113000000D02*
X193000000Y-115500000D01*
X186000000Y-115500000D02*
X183500000Y-113000000D01*
X196000000Y-89500000D02*
X195000000Y-88500000D01*
X192000000Y-90775000D02*
X189725000Y-88500000D01*
X192000000Y-92000000D02*
X192000000Y-90775000D01*
X174983355Y-93000000D02*
X177050000Y-93000000D01*
X172983355Y-91000000D02*
X174983355Y-93000000D01*
D24*
X188950000Y-92675000D02*
X190225000Y-92675000D01*
X190225000Y-92675000D02*
X190500000Y-92400000D01*
D25*
X192000000Y-92000000D02*
X190900000Y-92000000D01*
X190900000Y-92000000D02*
X190500000Y-92400000D01*
X161000000Y-91000000D02*
X172983355Y-91000000D01*
X158100000Y-91050000D02*
X160950000Y-91050000D01*
X160950000Y-91050000D02*
X161000000Y-91000000D01*
D24*
X189970002Y-93975000D02*
X191495002Y-95500000D01*
X191495002Y-95500000D02*
X196500000Y-95500000D01*
X188950000Y-93975000D02*
X189970002Y-93975000D01*
D25*
X153000000Y-92000000D02*
X151000000Y-92000000D01*
X151000000Y-92000000D02*
X149905000Y-93095000D01*
X149905000Y-99750000D02*
X149905000Y-112905000D01*
X149905000Y-112905000D02*
X150000000Y-113000000D01*
X153950000Y-91050000D02*
X153000000Y-92000000D01*
X153950000Y-92950000D02*
X155900000Y-92950000D01*
X155900000Y-91050000D02*
X153950000Y-91050000D01*
X153000000Y-92000000D02*
X153950000Y-92950000D01*
X152500000Y-115500000D02*
X153500000Y-115500000D01*
X153500000Y-115500000D02*
X162000000Y-115500000D01*
X162000000Y-115500000D02*
X171500000Y-115500000D01*
X162000000Y-113000000D02*
X162000000Y-115500000D01*
X171500000Y-115500000D02*
X174000000Y-113000000D01*
X150000000Y-113000000D02*
X152500000Y-115500000D01*
X149905000Y-99750000D02*
X149905000Y-93095000D01*
D24*
X173500000Y-93500000D02*
X171230518Y-93500000D01*
X171230518Y-93500000D02*
X166230518Y-98500000D01*
X166230518Y-98500000D02*
X154000000Y-98500000D01*
X147500000Y-107000000D02*
X147500000Y-113000000D01*
X184675000Y-93325000D02*
X185000000Y-93000000D01*
X183050000Y-93325000D02*
X184675000Y-93325000D01*
X156050000Y-106000000D02*
X156050000Y-109550000D01*
X156050000Y-109550000D02*
X159500000Y-113000000D01*
X173500000Y-94500000D02*
X171500000Y-94500000D01*
X171500000Y-94500000D02*
X166719001Y-99280999D01*
X166719001Y-99280999D02*
X153219576Y-99280999D01*
X153219576Y-99280999D02*
X152795312Y-99280999D01*
X187625164Y-94625000D02*
X187471190Y-94471026D01*
X188950000Y-94625000D02*
X187625164Y-94625000D01*
X151000000Y-107000000D02*
X151000000Y-104425000D01*
X151000000Y-104425000D02*
X151175000Y-104250000D01*
X173000000Y-88500000D02*
X151000000Y-88500000D01*
X151000000Y-88500000D02*
X146095000Y-93405000D01*
X146095000Y-93405000D02*
X146095000Y-104250000D01*
X186549682Y-92025000D02*
X186517596Y-92057086D01*
X188950000Y-92025000D02*
X186549682Y-92025000D01*
X173000000Y-89500000D02*
X151000000Y-89500000D01*
X151000000Y-89500000D02*
X147365000Y-93135000D01*
X147365000Y-93135000D02*
X147365000Y-99750000D01*
X185599989Y-90299999D02*
X185299990Y-90000000D01*
X186674990Y-91375000D02*
X185599989Y-90299999D01*
X188950000Y-91375000D02*
X186674990Y-91375000D01*
X187275010Y-90725000D02*
X187225000Y-90674990D01*
X188950000Y-90725000D02*
X187275010Y-90725000D01*
X187500000Y-89750000D02*
X187500000Y-89500000D01*
X188950000Y-90075000D02*
X187825000Y-90075000D01*
X187825000Y-90075000D02*
X187500000Y-89750000D01*
X168050000Y-106000000D02*
X168050000Y-109550000D01*
X168050000Y-109550000D02*
X171500000Y-113000000D01*
X179000000Y-96000000D02*
X179000000Y-93050000D01*
X179000000Y-93050000D02*
X178950000Y-93000000D01*
X183050000Y-92675000D02*
X179275000Y-92675000D01*
X179275000Y-92675000D02*
X178950000Y-93000000D01*
X158100000Y-92950000D02*
X158100000Y-95100000D01*
X158100000Y-95100000D02*
X159000000Y-96000000D01*
X173500000Y-95500000D02*
X171500000Y-95500000D01*
X171500000Y-95500000D02*
X167000000Y-100000000D01*
X167000000Y-100000000D02*
X162875000Y-100000000D01*
X162875000Y-100000000D02*
X161000000Y-101875000D01*
X161000000Y-101875000D02*
X161000000Y-102000000D01*
X183050000Y-93975000D02*
X184563419Y-93975000D01*
X184563419Y-93975000D02*
X185565133Y-94976714D01*
X157950000Y-102000000D02*
X161000000Y-102000000D01*
X173000000Y-102000000D02*
X173000000Y-101000000D01*
X173000000Y-101000000D02*
X174000000Y-100000000D01*
X174000000Y-100000000D02*
X179108516Y-100000000D01*
X179108516Y-100000000D02*
X180236106Y-98872410D01*
X180236106Y-96220349D02*
X181831455Y-94625000D01*
X180236106Y-98872410D02*
X180236106Y-96220349D01*
X181831455Y-94625000D02*
X183050000Y-94625000D01*
X169950000Y-102000000D02*
X173000000Y-102000000D01*
X181950000Y-102000000D02*
X181950000Y-99859409D01*
X180924999Y-96379998D02*
X182029997Y-95275000D01*
X181950000Y-99859409D02*
X180924999Y-98834408D01*
X180924999Y-98834408D02*
X180924999Y-96379998D01*
X182029997Y-95275000D02*
X183050000Y-95275000D01*
X181950000Y-102000000D02*
X184000000Y-102000000D01*
X184000000Y-102000000D02*
X185000000Y-103000000D01*
X183050000Y-95925000D02*
X186425000Y-95925000D01*
X186425000Y-95925000D02*
X191450000Y-100950000D01*
X191450000Y-100950000D02*
X191450000Y-102000000D01*
X191450000Y-101700000D02*
X191450000Y-102000000D01*
X191450000Y-102000000D02*
X193500000Y-102000000D01*
X193500000Y-102000000D02*
X194500000Y-103000000D01*
X191900000Y-99500000D02*
X188950000Y-96550000D01*
X188950000Y-96550000D02*
X188950000Y-95925000D01*
X191900000Y-99500000D02*
X198750000Y-99500000D01*
X198750000Y-99500000D02*
X200950000Y-101700000D01*
X200950000Y-101700000D02*
X200950000Y-102000000D01*
X200950000Y-102000000D02*
X203000000Y-102000000D01*
X203000000Y-102000000D02*
X204000000Y-103000000D01*
X190075000Y-95275000D02*
X193300000Y-98500000D01*
X193300000Y-98500000D02*
X207250000Y-98500000D01*
X207250000Y-98500000D02*
X210450000Y-101700000D01*
X210450000Y-101700000D02*
X210450000Y-102000000D01*
X188950000Y-95275000D02*
X190075000Y-95275000D01*
X210450000Y-102000000D02*
X212500000Y-102000000D01*
X212500000Y-102000000D02*
X213500000Y-103000000D01*
X180050000Y-106000000D02*
X180050000Y-102000000D01*
X180050000Y-106000000D02*
X180050000Y-112050000D01*
X180050000Y-112050000D02*
X181000000Y-113000000D01*
X189550000Y-106000000D02*
X189550000Y-102000000D01*
X189550000Y-106000000D02*
X189550000Y-112050000D01*
X189550000Y-112050000D02*
X190500000Y-113000000D01*
X199050000Y-106000000D02*
X199050000Y-102000000D01*
X199050000Y-106000000D02*
X199050000Y-112050000D01*
X199050000Y-112050000D02*
X200000000Y-113000000D01*
X208550000Y-106000000D02*
X208550000Y-102000000D01*
X208550000Y-106000000D02*
X208550000Y-112050000D01*
X208550000Y-112050000D02*
X209500000Y-113000000D01*
X157950000Y-104950000D02*
X156050000Y-103050000D01*
X156050000Y-103050000D02*
X156050000Y-102000000D01*
X157950000Y-106000000D02*
X157950000Y-104950000D01*
X157950000Y-106000000D02*
X161050000Y-106000000D01*
X169950000Y-104950000D02*
X168050000Y-103050000D01*
X168050000Y-103050000D02*
X168050000Y-102000000D01*
X169950000Y-106000000D02*
X169950000Y-104950000D01*
X169950000Y-106000000D02*
X173050000Y-106000000D01*
M02*
