G04 #@! TF.FileFunction,Soldermask,Top*
%FSLAX46Y46*%
G04 Gerber Fmt 4.6, Leading zero omitted, Abs format (unit mm)*
G04 Created by KiCad (PCBNEW 4.0.7-e2-6376~58~ubuntu16.04.1) date Wed Dec 26 14:08:54 2018*
%MOMM*%
%LPD*%
G01*
G04 APERTURE LIST*
%ADD10C,0.100000*%
%ADD11R,1.000000X1.250000*%
%ADD12R,1.250000X1.000000*%
%ADD13R,1.270000X0.970000*%
%ADD14R,0.700000X1.300000*%
%ADD15R,1.450000X0.450000*%
%ADD16R,1.060000X0.650000*%
%ADD17R,1.500000X3.000000*%
%ADD18C,1.524000*%
%ADD19R,1.750000X1.750000*%
%ADD20C,1.750000*%
G04 APERTURE END LIST*
D10*
D11*
X179000000Y-90000000D03*
X177000000Y-90000000D03*
X192000000Y-92000000D03*
X194000000Y-92000000D03*
X177000000Y-96000000D03*
X179000000Y-96000000D03*
X161000000Y-96000000D03*
X159000000Y-96000000D03*
D12*
X161000000Y-93000000D03*
X161000000Y-91000000D03*
D11*
X161000000Y-102000000D03*
X163000000Y-102000000D03*
X173000000Y-102000000D03*
X175000000Y-102000000D03*
D12*
X185000000Y-103000000D03*
X185000000Y-105000000D03*
X194500000Y-103000000D03*
X194500000Y-105000000D03*
X204000000Y-103000000D03*
X204000000Y-105000000D03*
X213500000Y-103000000D03*
X213500000Y-105000000D03*
D13*
X196500000Y-96770000D03*
X196500000Y-95500000D03*
X196500000Y-94230000D03*
D14*
X177050000Y-93000000D03*
X178950000Y-93000000D03*
X156050000Y-102000000D03*
X157950000Y-102000000D03*
X168050000Y-102000000D03*
X169950000Y-102000000D03*
X180050000Y-102000000D03*
X181950000Y-102000000D03*
X189550000Y-102000000D03*
X191450000Y-102000000D03*
X199050000Y-102000000D03*
X200950000Y-102000000D03*
X208550000Y-102000000D03*
X210450000Y-102000000D03*
X156050000Y-106000000D03*
X157950000Y-106000000D03*
X161050000Y-106000000D03*
X162950000Y-106000000D03*
X168050000Y-106000000D03*
X169950000Y-106000000D03*
X173050000Y-106000000D03*
X174950000Y-106000000D03*
X180050000Y-106000000D03*
X181950000Y-106000000D03*
X189550000Y-106000000D03*
X191450000Y-106000000D03*
X199050000Y-106000000D03*
X200950000Y-106000000D03*
X208550000Y-106000000D03*
X210450000Y-106000000D03*
D15*
X183050000Y-90075000D03*
X183050000Y-90725000D03*
X183050000Y-91375000D03*
X183050000Y-92025000D03*
X183050000Y-92675000D03*
X183050000Y-93325000D03*
X183050000Y-93975000D03*
X183050000Y-94625000D03*
X183050000Y-95275000D03*
X183050000Y-95925000D03*
X188950000Y-95925000D03*
X188950000Y-95275000D03*
X188950000Y-94625000D03*
X188950000Y-93975000D03*
X188950000Y-93325000D03*
X188950000Y-92675000D03*
X188950000Y-92025000D03*
X188950000Y-91375000D03*
X188950000Y-90725000D03*
X188950000Y-90075000D03*
D16*
X155900000Y-91050000D03*
X155900000Y-92000000D03*
X155900000Y-92950000D03*
X158100000Y-92950000D03*
X158100000Y-91050000D03*
D17*
X144825000Y-99750000D03*
X146095000Y-104250000D03*
X147365000Y-99750000D03*
X148635000Y-104250000D03*
X149905000Y-99750000D03*
X151175000Y-104250000D03*
D18*
X200460000Y-91000000D03*
X203000000Y-91000000D03*
X205540000Y-91000000D03*
D19*
X145000000Y-113000000D03*
D20*
X147500000Y-113000000D03*
X150000000Y-113000000D03*
D19*
X157000000Y-113000000D03*
D20*
X159500000Y-113000000D03*
X162000000Y-113000000D03*
D19*
X169000000Y-113000000D03*
D20*
X171500000Y-113000000D03*
X174000000Y-113000000D03*
D19*
X181000000Y-113000000D03*
D20*
X183500000Y-113000000D03*
D19*
X190500000Y-113000000D03*
D20*
X193000000Y-113000000D03*
D19*
X200000000Y-113000000D03*
D20*
X202500000Y-113000000D03*
D19*
X209500000Y-113000000D03*
D20*
X212000000Y-113000000D03*
M02*
