M48
;DRILL file {KiCad 4.0.7-e2-6376~58~ubuntu16.04.1} date Wed Dec 26 14:08:59 2018
;FORMAT={-:-/ absolute / inch / decimal}
FMAT,2
INCH,TZ
T1C0.016
T2C0.024
T3C0.039
T4C0.040
T5C0.087
%
G90
G05
M72
T1
X5.8071Y-4.2126
X5.9449Y-4.2126
X6.0156Y-3.9087
X6.063Y-3.878
X6.811Y-3.4843
X6.811Y-3.5236
X6.8307Y-3.6811
X6.8307Y-3.7205
X6.8307Y-3.7598
X7.2835Y-3.6614
X7.2953Y-3.5433
X7.3057Y-3.7392
X7.3432Y-3.6243
X7.3711Y-3.5699
X7.3808Y-3.7193
X7.3819Y-3.5236
T2
X5.6762Y-3.8189
X6.1811Y-3.622
X6.4173Y-3.6614
X6.4173Y-4.0945
X6.8898Y-4.0945
X6.9075Y-3.5709
X6.915Y-3.7933
X7.1187Y-3.5818
X7.2441Y-4.1732
X7.6181Y-4.1732
X7.627Y-3.6811
X7.6322Y-3.5492
X7.6575Y-3.8189
X7.9921Y-4.1732
X8.3661Y-4.1732
T3
X5.7087Y-4.4488
X5.8071Y-4.4488
X5.9055Y-4.4488
X6.1811Y-4.4488
X6.2795Y-4.4488
X6.378Y-4.4488
X6.6535Y-4.4488
X6.752Y-4.4488
X6.8504Y-4.4488
X7.126Y-4.4488
X7.2244Y-4.4488
X7.5Y-4.4488
X7.5984Y-4.4488
X7.874Y-4.4488
X7.9724Y-4.4488
X8.248Y-4.4488
X8.3465Y-4.4488
T4
X7.8921Y-3.5827
X7.9921Y-3.5827
X8.0921Y-3.5827
T5
X5.6693Y-3.5433
X8.3858Y-3.5433
T0
M30
